<svg width="120" height="120" viewBox="0 0 120 120" fill="none" xmlns="http://www.w3.org/2000/svg">
<path d="M0 43.4284C0 28.2271 0 20.6264 2.95839 14.8203C5.56067 9.71301 9.71301 5.56067 14.8203 2.95839C20.6264 0 28.2271 0 43.4284 0H76.5716C91.773 0 99.3737 0 105.18 2.95839C110.287 5.56067 114.439 9.71301 117.042 14.8203C120 20.6264 120 28.2271 120 43.4284V76.5716C120 91.773 120 99.3737 117.042 105.18C114.439 110.287 110.287 114.439 105.18 117.042C99.3737 120 91.773 120 76.5716 120H43.4284C28.2271 120 20.6264 120 14.8203 117.042C9.71301 114.439 5.56067 110.287 2.95839 105.18C0 99.3737 0 91.773 0 76.5716V43.4284Z" fill="#00005B"/>
<path d="M25.7143 84.8387V30.8913C25.7143 30.5243 25.8647 30.3146 26.2158 30.3146C31.3982 30.3146 36.5781 30 41.7621 30C50.1733 30 59.2813 32.9316 62.4737 41.901C63.2259 44.103 63.627 46.3573 63.627 48.7166C63.627 53.2251 62.6241 56.9473 60.618 59.8834C55.0149 68.0846 45.3026 67.9573 36.5966 67.9573V84.786C36.6647 85.2844 36.2481 85.5201 35.8444 85.5201H26.3161C25.9149 85.5201 25.7143 85.3106 25.7143 84.8387ZM36.6467 40.4331V58.0483C40.0989 58.3063 43.7109 58.3341 47.0276 57.2096C50.6893 56.133 52.6946 52.9024 52.6946 49.0311C52.7966 45.7324 51.033 42.567 48.0309 41.3769C44.754 39.9879 40.1841 39.9047 36.6467 40.4331Z" fill="#9999FF"/>
<path d="M70.4251 43.7652H79.2263C79.7114 43.7699 80.1473 44.1201 80.2754 44.6095C80.9204 46.1065 81.0001 47.9121 81.0023 49.5282C82.5117 47.6909 84.3314 46.1605 86.3714 45.0124C88.5592 43.7185 91.0394 43.0624 93.5525 43.1134C93.97 43.0508 94.339 43.4369 94.2794 43.8728V54.0861C94.2794 54.4808 94.0094 54.6771 93.472 54.6771C89.7468 54.4084 83.9474 55.3285 81.2405 58.3911V84.9471C81.2405 85.4537 81.0254 85.707 80.5947 85.707H71.152C70.6883 85.7764 70.279 85.3401 70.3445 84.8627V56.0275C70.3445 52.1639 70.4247 48.1838 69.8603 44.3562C69.7733 44.0039 70.0955 43.6765 70.4251 43.7652Z" fill="#9999FF"/>
</svg>
