<svg width="120" height="120" viewBox="0 0 120 120" fill="none" xmlns="http://www.w3.org/2000/svg">
<path d="M0 43.4284C0 28.2271 0 20.6264 2.95839 14.8203C5.56067 9.71301 9.71301 5.56067 14.8203 2.95839C20.6264 0 28.2271 0 43.4284 0H76.5716C91.773 0 99.3737 0 105.18 2.95839C110.287 5.56067 114.439 9.71301 117.042 14.8203C120 20.6264 120 28.2271 120 43.4284V76.5716C120 91.773 120 99.3737 117.042 105.18C114.439 110.287 110.287 114.439 105.18 117.042C99.3737 120 91.773 120 76.5716 120H43.4284C28.2271 120 20.6264 120 14.8203 117.042C9.71301 114.439 5.56067 110.287 2.95839 105.18C0 99.3737 0 91.773 0 76.5716V43.4284Z" fill="#00005B"/>
<path d="M50.5256 75.2733H31.9303L28.1468 87.3508C28.0418 87.7987 27.6294 88.1158 27.1808 88.094H17.7623C17.2252 88.094 17.0374 87.7914 17.1988 87.1858L33.2987 39.8253C33.4598 39.3303 33.6207 38.846 33.7819 38.2125C33.9924 37.1107 34.1002 35.9913 34.1038 34.8688C34.0577 34.5371 34.344 34.2433 34.6672 34.2907H47.4669C47.8419 34.2907 48.0562 34.4283 48.1106 34.7034L66.3844 87.2681C66.5452 87.8193 66.384 88.0944 65.9015 88.094H55.4362C55.0693 88.1355 54.7187 87.884 54.6313 87.5158L50.5256 75.2733ZM34.8283 65.09H47.5474C45.4577 57.9491 43.0993 50.9025 41.1879 43.706C39.0219 51.1708 37.0217 58.094 34.8283 65.09Z" fill="#9999FF"/>
<path d="M79.975 70.6102C80.7151 76.7426 85.8648 79.6663 91.567 79.5416C94.7825 79.4786 98.2188 78.9793 101.224 77.7635C101.491 77.5445 101.626 77.6812 101.626 78.1766V86.0199C101.651 86.4279 101.481 86.7926 101.143 87.0108C97.4084 88.707 93.1218 89.2188 89.0714 89.1536C76.9951 89.1536 68.7018 80.6448 68.7052 68.265C68.6735 56.5333 76.2845 46.6359 88.1054 46.6359C98.1258 46.3762 105.063 54.3986 105.091 64.3848C105.091 66.2032 104.989 68.0285 104.769 69.8336C104.726 70.2056 104.41 70.4945 104.044 70.4945C96.0417 70.4945 88 70.6102 79.975 70.6102ZM79.975 63.0888C84.4351 63.0888 88.921 63.2465 93.3781 63.0476C94.048 62.979 94.5455 62.8517 94.5455 62.1553C94.4525 58.4533 91.3282 55.4083 87.703 55.5502C83.323 55.2785 80.5197 58.9762 79.975 63.0888Z" fill="#9999FF"/>
</svg>
