<svg width="391" height="79" viewBox="0 0 391 79" fill="none" xmlns="http://www.w3.org/2000/svg">
<path d="M27.4748 78.0653C21.8877 78.0653 17.0818 76.8816 13.0572 74.5142C9.05623 72.1231 5.97857 68.8087 3.82422 64.571C1.69354 60.3333 0.628196 55.4564 0.628196 49.9403C0.628196 44.3532 1.70537 39.4527 3.85973 35.2386C6.03776 31.0009 9.12725 27.6984 13.1282 25.331C17.1291 22.9399 21.8877 21.7443 27.4038 21.7443C32.1623 21.7443 36.329 22.6084 39.9038 24.3366C43.4786 26.0649 46.3076 28.4915 48.391 31.6165C50.4743 34.7415 51.6225 38.411 51.8356 42.625H37.56C37.1576 39.9025 36.0922 37.7126 34.364 36.0554C32.6594 34.3745 30.4222 33.5341 27.6523 33.5341C25.3086 33.5341 23.2608 34.1733 21.5089 35.4517C19.7807 36.7064 18.4312 38.5412 17.4606 40.956C16.4899 43.3707 16.0046 46.2945 16.0046 49.7273C16.0046 53.2074 16.4781 56.1667 17.4251 58.6051C18.3957 61.0436 19.757 62.902 21.5089 64.1804C23.2608 65.4588 25.3086 66.098 27.6523 66.098C29.3806 66.098 30.9312 65.7429 32.3043 65.0327C33.7011 64.3224 34.8493 63.2926 35.7489 61.9432C36.6722 60.5701 37.2759 58.9247 37.56 57.0071H51.8356C51.5988 61.1738 50.4625 64.8433 48.4265 68.0156C46.4142 71.1643 43.6325 73.6264 40.0813 75.402C36.5302 77.1776 32.328 78.0653 27.4748 78.0653ZM61.5213 77V22.4545H76.1875V31.9716H76.7557C77.75 28.5862 79.419 26.0294 81.7628 24.3011C84.1065 22.5492 86.8054 21.6733 89.8594 21.6733C90.617 21.6733 91.4337 21.7206 92.3097 21.8153C93.1856 21.91 93.955 22.0402 94.6179 22.206V35.6293C93.9077 35.4162 92.9252 35.2268 91.6705 35.0611C90.4157 34.8954 89.2675 34.8125 88.2259 34.8125C86.0005 34.8125 84.0118 35.2978 82.2599 36.2685C80.5317 37.2154 79.1586 38.5412 78.1406 40.2457C77.1463 41.9503 76.6491 43.9152 76.6491 46.1406V77H61.5213ZM124.758 78.0653C119.147 78.0653 114.318 76.929 110.27 74.6562C106.245 72.3598 103.144 69.1165 100.966 64.9261C98.7875 60.7121 97.6985 55.7287 97.6985 49.9759C97.6985 44.3651 98.7875 39.4408 100.966 35.2031C103.144 30.9654 106.209 27.6629 110.163 25.2955C114.14 22.928 118.804 21.7443 124.154 21.7443C127.753 21.7443 131.103 22.3243 134.204 23.4844C137.329 24.6207 140.052 26.3371 142.372 28.6335C144.716 30.9299 146.538 33.8182 147.841 37.2983C149.143 40.7547 149.794 44.803 149.794 49.4432V53.598H103.735V44.223H135.554C135.554 42.045 135.08 40.1155 134.133 38.4347C133.186 36.7538 131.872 35.4399 130.191 34.4929C128.534 33.5223 126.605 33.0369 124.403 33.0369C122.107 33.0369 120.071 33.5696 118.295 34.6349C116.543 35.6766 115.17 37.0852 114.176 38.8608C113.181 40.6127 112.672 42.5658 112.649 44.7202V53.6335C112.649 56.3324 113.146 58.6643 114.14 60.6293C115.158 62.5942 116.591 64.1094 118.437 65.1747C120.284 66.2401 122.474 66.7727 125.007 66.7727C126.688 66.7727 128.226 66.536 129.623 66.0625C131.02 65.589 132.216 64.8788 133.21 63.9318C134.204 62.9848 134.962 61.8248 135.483 60.4517L149.474 61.375C148.764 64.7367 147.308 67.6723 145.106 70.1818C142.928 72.6676 140.111 74.6089 136.654 76.0057C133.222 77.3788 129.256 78.0653 124.758 78.0653ZM175.22 78.0298C171.74 78.0298 168.638 77.4261 165.916 76.2188C163.193 74.9877 161.039 73.1766 159.453 70.7855C157.89 68.3707 157.109 65.3641 157.109 61.7656C157.109 58.7353 157.665 56.1903 158.778 54.1307C159.891 52.071 161.406 50.4138 163.324 49.1591C165.241 47.9044 167.419 46.9574 169.858 46.3182C172.32 45.679 174.9 45.2292 177.599 44.9688C180.771 44.6373 183.328 44.3295 185.27 44.0455C187.211 43.7377 188.619 43.2879 189.495 42.696C190.371 42.1042 190.809 41.2282 190.809 40.0682V39.8551C190.809 37.6061 190.099 35.866 188.679 34.6349C187.282 33.4039 185.293 32.7884 182.713 32.7884C179.99 32.7884 177.824 33.392 176.214 34.5994C174.604 35.7831 173.539 37.2746 173.018 39.0739L159.027 37.9375C159.737 34.6231 161.134 31.7585 163.217 29.3438C165.3 26.9053 167.987 25.035 171.278 23.733C174.592 22.4072 178.428 21.7443 182.784 21.7443C185.814 21.7443 188.714 22.0994 191.484 22.8097C194.278 23.5199 196.752 24.6207 198.906 26.1122C201.084 27.6037 202.8 29.5213 204.055 31.8651C205.31 34.1851 205.937 36.9669 205.937 40.2102V77H191.591V69.4361H191.164C190.288 71.1406 189.117 72.6439 187.649 73.946C186.181 75.2244 184.417 76.2306 182.358 76.9645C180.298 77.6747 177.919 78.0298 175.22 78.0298ZM179.552 67.5895C181.778 67.5895 183.743 67.1515 185.447 66.2756C187.152 65.3759 188.489 64.1686 189.46 62.6534C190.431 61.1383 190.916 59.4219 190.916 57.5043V51.7159C190.442 52.0237 189.791 52.3078 188.963 52.5682C188.158 52.8049 187.246 53.0298 186.228 53.2429C185.21 53.4323 184.192 53.6098 183.174 53.7756C182.156 53.9176 181.233 54.0478 180.404 54.1662C178.629 54.4266 177.078 54.8409 175.752 55.4091C174.427 55.9773 173.397 56.7467 172.663 57.7173C171.929 58.6643 171.562 59.848 171.562 61.2685C171.562 63.3281 172.308 64.9025 173.799 65.9915C175.315 67.0568 177.232 67.5895 179.552 67.5895ZM246.686 22.4545V33.8182H213.838V22.4545H246.686ZM221.296 9.38636H236.424V60.2386C236.424 61.6354 236.637 62.7244 237.063 63.5057C237.489 64.2633 238.081 64.7959 238.838 65.1037C239.62 65.4115 240.519 65.5653 241.537 65.5653C242.248 65.5653 242.958 65.5062 243.668 65.3878C244.378 65.2457 244.923 65.1392 245.301 65.0682L247.681 76.3253C246.923 76.562 245.858 76.8343 244.485 77.142C243.112 77.4735 241.443 77.6747 239.478 77.7457C235.832 77.8878 232.636 77.4025 229.89 76.2898C227.167 75.1771 225.048 73.4489 223.533 71.1051C222.018 68.7614 221.272 65.8021 221.296 62.2273V9.38636ZM256.541 77V22.4545H271.669V77H256.541ZM264.14 15.4233C261.891 15.4233 259.962 14.6776 258.352 13.1861C256.766 11.6709 255.973 9.85985 255.973 7.75284C255.973 5.6695 256.766 3.8821 258.352 2.39062C259.962 0.875471 261.891 0.117894 264.14 0.117894C266.389 0.117894 268.307 0.875471 269.893 2.39062C271.503 3.8821 272.308 5.6695 272.308 7.75284C272.308 9.85985 271.503 11.6709 269.893 13.1861C268.307 14.6776 266.389 15.4233 264.14 15.4233ZM334.639 22.4545L315.57 77H298.524L279.455 22.4545H295.435L306.763 61.4815H307.331L318.624 22.4545H334.639ZM365.481 78.0653C359.87 78.0653 355.04 76.929 350.992 74.6562C346.968 72.3598 343.866 69.1165 341.688 64.9261C339.51 60.7121 338.421 55.7287 338.421 49.9759C338.421 44.3651 339.51 39.4408 341.688 35.2031C343.866 30.9654 346.932 27.6629 350.886 25.2955C354.863 22.928 359.527 21.7443 364.877 21.7443C368.476 21.7443 371.826 22.3243 374.927 23.4844C378.052 24.6207 380.774 26.3371 383.094 28.6335C385.438 30.9299 387.261 33.8182 388.563 37.2983C389.865 40.7547 390.516 44.803 390.516 49.4432V53.598H344.458V44.223H376.276C376.276 42.045 375.803 40.1155 374.856 38.4347C373.909 36.7538 372.595 35.4399 370.914 34.4929C369.257 33.5223 367.327 33.0369 365.126 33.0369C362.829 33.0369 360.793 33.5696 359.018 34.6349C357.266 35.6766 355.893 37.0852 354.898 38.8608C353.904 40.6127 353.395 42.5658 353.371 44.7202V53.6335C353.371 56.3324 353.869 58.6643 354.863 60.6293C355.881 62.5942 357.313 64.1094 359.16 65.1747C361.006 66.2401 363.196 66.7727 365.729 66.7727C367.41 66.7727 368.949 66.536 370.346 66.0625C371.743 65.589 372.938 64.8788 373.933 63.9318C374.927 62.9848 375.684 61.8248 376.205 60.4517L390.197 61.375C389.487 64.7367 388.031 67.6723 385.829 70.1818C383.651 72.6676 380.834 74.6089 377.377 76.0057C373.944 77.3788 369.979 78.0653 365.481 78.0653Z" fill="url(#paint0_radial_2_3)"/>
<path d="M27.4748 78.0653C21.8877 78.0653 17.0818 76.8816 13.0572 74.5142C9.05623 72.1231 5.97857 68.8087 3.82422 64.571C1.69354 60.3333 0.628196 55.4564 0.628196 49.9403C0.628196 44.3532 1.70537 39.4527 3.85973 35.2386C6.03776 31.0009 9.12725 27.6984 13.1282 25.331C17.1291 22.9399 21.8877 21.7443 27.4038 21.7443C32.1623 21.7443 36.329 22.6084 39.9038 24.3366C43.4786 26.0649 46.3076 28.4915 48.391 31.6165C50.4743 34.7415 51.6225 38.411 51.8356 42.625H37.56C37.1576 39.9025 36.0922 37.7126 34.364 36.0554C32.6594 34.3745 30.4222 33.5341 27.6523 33.5341C25.3086 33.5341 23.2608 34.1733 21.5089 35.4517C19.7807 36.7064 18.4312 38.5412 17.4606 40.956C16.4899 43.3707 16.0046 46.2945 16.0046 49.7273C16.0046 53.2074 16.4781 56.1667 17.4251 58.6051C18.3957 61.0436 19.757 62.902 21.5089 64.1804C23.2608 65.4588 25.3086 66.098 27.6523 66.098C29.3806 66.098 30.9312 65.7429 32.3043 65.0327C33.7011 64.3224 34.8493 63.2926 35.7489 61.9432C36.6722 60.5701 37.2759 58.9247 37.56 57.0071H51.8356C51.5988 61.1738 50.4625 64.8433 48.4265 68.0156C46.4142 71.1643 43.6325 73.6264 40.0813 75.402C36.5302 77.1776 32.328 78.0653 27.4748 78.0653ZM61.5213 77V22.4545H76.1875V31.9716H76.7557C77.75 28.5862 79.419 26.0294 81.7628 24.3011C84.1065 22.5492 86.8054 21.6733 89.8594 21.6733C90.617 21.6733 91.4337 21.7206 92.3097 21.8153C93.1856 21.91 93.955 22.0402 94.6179 22.206V35.6293C93.9077 35.4162 92.9252 35.2268 91.6705 35.0611C90.4157 34.8954 89.2675 34.8125 88.2259 34.8125C86.0005 34.8125 84.0118 35.2978 82.2599 36.2685C80.5317 37.2154 79.1586 38.5412 78.1406 40.2457C77.1463 41.9503 76.6491 43.9152 76.6491 46.1406V77H61.5213ZM124.758 78.0653C119.147 78.0653 114.318 76.929 110.27 74.6562C106.245 72.3598 103.144 69.1165 100.966 64.9261C98.7875 60.7121 97.6985 55.7287 97.6985 49.9759C97.6985 44.3651 98.7875 39.4408 100.966 35.2031C103.144 30.9654 106.209 27.6629 110.163 25.2955C114.14 22.928 118.804 21.7443 124.154 21.7443C127.753 21.7443 131.103 22.3243 134.204 23.4844C137.329 24.6207 140.052 26.3371 142.372 28.6335C144.716 30.9299 146.538 33.8182 147.841 37.2983C149.143 40.7547 149.794 44.803 149.794 49.4432V53.598H103.735V44.223H135.554C135.554 42.045 135.08 40.1155 134.133 38.4347C133.186 36.7538 131.872 35.4399 130.191 34.4929C128.534 33.5223 126.605 33.0369 124.403 33.0369C122.107 33.0369 120.071 33.5696 118.295 34.6349C116.543 35.6766 115.17 37.0852 114.176 38.8608C113.181 40.6127 112.672 42.5658 112.649 44.7202V53.6335C112.649 56.3324 113.146 58.6643 114.14 60.6293C115.158 62.5942 116.591 64.1094 118.437 65.1747C120.284 66.2401 122.474 66.7727 125.007 66.7727C126.688 66.7727 128.226 66.536 129.623 66.0625C131.02 65.589 132.216 64.8788 133.21 63.9318C134.204 62.9848 134.962 61.8248 135.483 60.4517L149.474 61.375C148.764 64.7367 147.308 67.6723 145.106 70.1818C142.928 72.6676 140.111 74.6089 136.654 76.0057C133.222 77.3788 129.256 78.0653 124.758 78.0653ZM175.22 78.0298C171.74 78.0298 168.638 77.4261 165.916 76.2188C163.193 74.9877 161.039 73.1766 159.453 70.7855C157.89 68.3707 157.109 65.3641 157.109 61.7656C157.109 58.7353 157.665 56.1903 158.778 54.1307C159.891 52.071 161.406 50.4138 163.324 49.1591C165.241 47.9044 167.419 46.9574 169.858 46.3182C172.32 45.679 174.9 45.2292 177.599 44.9688C180.771 44.6373 183.328 44.3295 185.27 44.0455C187.211 43.7377 188.619 43.2879 189.495 42.696C190.371 42.1042 190.809 41.2282 190.809 40.0682V39.8551C190.809 37.6061 190.099 35.866 188.679 34.6349C187.282 33.4039 185.293 32.7884 182.713 32.7884C179.99 32.7884 177.824 33.392 176.214 34.5994C174.604 35.7831 173.539 37.2746 173.018 39.0739L159.027 37.9375C159.737 34.6231 161.134 31.7585 163.217 29.3438C165.3 26.9053 167.987 25.035 171.278 23.733C174.592 22.4072 178.428 21.7443 182.784 21.7443C185.814 21.7443 188.714 22.0994 191.484 22.8097C194.278 23.5199 196.752 24.6207 198.906 26.1122C201.084 27.6037 202.8 29.5213 204.055 31.8651C205.31 34.1851 205.937 36.9669 205.937 40.2102V77H191.591V69.4361H191.164C190.288 71.1406 189.117 72.6439 187.649 73.946C186.181 75.2244 184.417 76.2306 182.358 76.9645C180.298 77.6747 177.919 78.0298 175.22 78.0298ZM179.552 67.5895C181.778 67.5895 183.743 67.1515 185.447 66.2756C187.152 65.3759 188.489 64.1686 189.46 62.6534C190.431 61.1383 190.916 59.4219 190.916 57.5043V51.7159C190.442 52.0237 189.791 52.3078 188.963 52.5682C188.158 52.8049 187.246 53.0298 186.228 53.2429C185.21 53.4323 184.192 53.6098 183.174 53.7756C182.156 53.9176 181.233 54.0478 180.404 54.1662C178.629 54.4266 177.078 54.8409 175.752 55.4091C174.427 55.9773 173.397 56.7467 172.663 57.7173C171.929 58.6643 171.562 59.848 171.562 61.2685C171.562 63.3281 172.308 64.9025 173.799 65.9915C175.315 67.0568 177.232 67.5895 179.552 67.5895ZM246.686 22.4545V33.8182H213.838V22.4545H246.686ZM221.296 9.38636H236.424V60.2386C236.424 61.6354 236.637 62.7244 237.063 63.5057C237.489 64.2633 238.081 64.7959 238.838 65.1037C239.62 65.4115 240.519 65.5653 241.537 65.5653C242.248 65.5653 242.958 65.5062 243.668 65.3878C244.378 65.2457 244.923 65.1392 245.301 65.0682L247.681 76.3253C246.923 76.562 245.858 76.8343 244.485 77.142C243.112 77.4735 241.443 77.6747 239.478 77.7457C235.832 77.8878 232.636 77.4025 229.89 76.2898C227.167 75.1771 225.048 73.4489 223.533 71.1051C222.018 68.7614 221.272 65.8021 221.296 62.2273V9.38636ZM256.541 77V22.4545H271.669V77H256.541ZM264.14 15.4233C261.891 15.4233 259.962 14.6776 258.352 13.1861C256.766 11.6709 255.973 9.85985 255.973 7.75284C255.973 5.6695 256.766 3.8821 258.352 2.39062C259.962 0.875471 261.891 0.117894 264.14 0.117894C266.389 0.117894 268.307 0.875471 269.893 2.39062C271.503 3.8821 272.308 5.6695 272.308 7.75284C272.308 9.85985 271.503 11.6709 269.893 13.1861C268.307 14.6776 266.389 15.4233 264.14 15.4233ZM334.639 22.4545L315.57 77H298.524L279.455 22.4545H295.435L306.763 61.4815H307.331L318.624 22.4545H334.639ZM365.481 78.0653C359.87 78.0653 355.04 76.929 350.992 74.6562C346.968 72.3598 343.866 69.1165 341.688 64.9261C339.51 60.7121 338.421 55.7287 338.421 49.9759C338.421 44.3651 339.51 39.4408 341.688 35.2031C343.866 30.9654 346.932 27.6629 350.886 25.2955C354.863 22.928 359.527 21.7443 364.877 21.7443C368.476 21.7443 371.826 22.3243 374.927 23.4844C378.052 24.6207 380.774 26.3371 383.094 28.6335C385.438 30.9299 387.261 33.8182 388.563 37.2983C389.865 40.7547 390.516 44.803 390.516 49.4432V53.598H344.458V44.223H376.276C376.276 42.045 375.803 40.1155 374.856 38.4347C373.909 36.7538 372.595 35.4399 370.914 34.4929C369.257 33.5223 367.327 33.0369 365.126 33.0369C362.829 33.0369 360.793 33.5696 359.018 34.6349C357.266 35.6766 355.893 37.0852 354.898 38.8608C353.904 40.6127 353.395 42.5658 353.371 44.7202V53.6335C353.371 56.3324 353.869 58.6643 354.863 60.6293C355.881 62.5942 357.313 64.1094 359.16 65.1747C361.006 66.2401 363.196 66.7727 365.729 66.7727C367.41 66.7727 368.949 66.536 370.346 66.0625C371.743 65.589 372.938 64.8788 373.933 63.9318C374.927 62.9848 375.684 61.8248 376.205 60.4517L390.197 61.375C389.487 64.7367 388.031 67.6723 385.829 70.1818C383.651 72.6676 380.834 74.6089 377.377 76.0057C373.944 77.3788 369.979 78.0653 365.481 78.0653Z" fill="url(#paint1_angular_2_3)"/>
<defs>
<radialGradient id="paint0_radial_2_3" cx="0" cy="0" r="1" gradientUnits="userSpaceOnUse" gradientTransform="translate(-304.556 216.836) rotate(-2.55912) scale(489.044 2407.31)">
<stop stop-color="#0089B5"/>
<stop offset="0.436458" stop-color="#07C45E" stop-opacity="0.895833"/>
<stop offset="0.525" stop-color="#0172E3"/>
<stop offset="0.827083" stop-color="#0159B2" stop-opacity="0.857667"/>
<stop offset="0.9999" stop-color="#0066FF"/>
<stop offset="1" stop-color="#0080FF" stop-opacity="0.72"/>
</radialGradient>
<radialGradient id="paint1_angular_2_3" cx="0" cy="0" r="1" gradientUnits="userSpaceOnUse" gradientTransform="translate(-253.938 234.193) rotate(55.5783) scale(85.5218 90.7515)">
<stop stop-color="#FF0000"/>
<stop offset="0.497958" stop-color="#800000" stop-opacity="0.502042"/>
<stop offset="1" stop-opacity="0"/>
</radialGradient>
</defs>
</svg>
