<svg width="300" height="57" viewBox="0 0 300 57" fill="none" xmlns="http://www.w3.org/2000/svg">
<path d="M170.43 23.74H194.02V32.56H170.43V23.74ZM171.27 43.9H197.94V53H160V4H197.03V13.1H171.27V43.9Z" fill="#D9D9D9"/>
<path d="M200.523 53L222.363 4H233.563L255.473 53H243.573L225.653 9.74H230.133L212.143 53H200.523ZM211.443 42.5L214.453 33.89H239.653L242.733 42.5H211.443Z" fill="#D9D9D9"/>
<path d="M268.246 53V13.24H252.566V4H295.266V13.24H279.586V53H268.246Z" fill="#D9D9D9"/>
<path d="M17.27 41.9V34.56H38.02H40.02V32.56V23.74V21.74H38.02H17.27V15.1H41.03H43.03V13.1V4V2H41.03H4H2V4V53V55H4H41.4418H41.94H43.94H44.5229H56.1429H57.4772L57.9896 53.768L61.8437 44.5H81.8871L85.7252 53.7654L86.2366 55H87.5729H99.4729H102.558L101.299 52.1836L79.3887 3.18361L78.8594 2H77.5629H66.3629H65.0647L64.5361 3.18579L43.94 49.3951V43.9V41.9H41.94H17.27ZM71.8849 20.3542L76.6635 31.89H67.0877L71.8849 20.3542ZM110.246 53V55H112.246H123.586H125.586V53V15.24H139.266H141.266V13.24V4V2H139.266H96.5657H94.5657V4V13.24V15.24H96.5657H110.246V53ZM173.27 41.9V34.56H194.02H196.02V32.56V23.74V21.74H194.02H173.27V15.1H197.03H199.03V13.1V4V2H197.03H160H158V4V53V55H160H197.442H197.94H199.94H200.523H212.143H213.477L213.99 53.768L217.844 44.5H237.887L241.725 53.7654L242.237 55H243.573H255.473H258.558L257.299 52.1836L235.389 3.18361L234.859 2H233.563H222.363H221.065L220.536 3.18579L199.94 49.395V43.9V41.9H197.94H173.27ZM227.885 20.3542L232.663 31.89H223.088L227.885 20.3542ZM266.246 53V55H268.246H279.586H281.586V53V15.24H295.266H297.266V13.24V4V2H295.266H252.566H250.566V4V13.24V15.24H252.566H266.246V53Z" stroke="#C3C3C3" stroke-width="4"/>
</svg>
