<svg width="352" height="57" viewBox="0 0 352 57" fill="none" xmlns="http://www.w3.org/2000/svg">
<path d="M193.43 23.74H217.02V32.56H193.43V23.74ZM194.27 43.9H220.94V53H183V4H220.03V13.1H194.27V43.9Z" fill="#D9D9D9"/>
<path d="M229.963 53V4H252.223C257.543 4 262.233 5.02667 266.293 7.08C270.353 9.08667 273.526 11.91 275.813 15.55C278.1 19.19 279.243 23.5067 279.243 28.5C279.243 33.4467 278.1 37.7633 275.813 41.45C273.526 45.09 270.353 47.9367 266.293 49.99C262.233 51.9967 257.543 53 252.223 53H229.963ZM241.303 43.69H251.663C254.93 43.69 257.753 43.0833 260.133 41.87C262.56 40.61 264.426 38.8367 265.733 36.55C267.086 34.2633 267.763 31.58 267.763 28.5C267.763 25.3733 267.086 22.69 265.733 20.45C264.426 18.1633 262.56 16.4133 260.133 15.2C257.753 13.94 254.93 13.31 251.663 13.31H241.303V43.69Z" fill="#D9D9D9"/>
<path d="M287.795 53V4H299.135V53H287.795Z" fill="#D9D9D9"/>
<path d="M320.914 53V13.24H305.234V4H347.934V13.24H332.254V53H320.914Z" fill="#D9D9D9"/>
<path d="M15.27 30.56V25.74H34.02V30.56H15.27ZM15.27 34.56H36.02H38.02V32.56V23.74V21.74H36.02H15.27V15.1H39.03H41.03V13.1V4V2H39.03H2H0V4V53V55H2H39.94H41.94V53V43.9V41.9H39.94H15.27V34.56ZM11.27 21.74H10.43V23.74V32.56V34.56H11.27V43.9V45.9H13.27H37.94V51H4V6H37.03V11.1H13.27H11.27V13.1V21.74ZM46.9629 53V55H48.9629H71.2229C76.7968 55 81.7993 53.9477 86.1791 51.783L86.1873 51.7789L86.1955 51.7747C90.56 49.5674 94.0151 46.4798 96.5065 42.5139L96.5125 42.5042C99.0219 38.4584 100.243 33.7657 100.243 28.5C100.243 23.1922 99.0239 18.4935 96.5064 14.4861C94.014 10.5186 90.5562 7.45214 86.1873 5.29111C81.8057 3.07693 76.8 2 71.2229 2H48.9629H46.9629V4V53ZM84.3903 8.86473L84.3985 8.86888L84.4067 8.87296C88.1539 10.725 91.04 13.3039 93.1193 16.6139C95.1752 19.8865 96.2429 23.8211 96.2429 28.5C96.2429 33.1256 95.1781 37.0649 93.1159 40.3916C91.0357 43.7007 88.1479 46.3032 84.3985 48.2011C80.6601 50.0471 76.2853 51 71.2229 51H50.9629V6H71.2229C76.2823 6 80.6539 6.97505 84.3903 8.86473ZM58.3029 43.69V45.69H60.3029H70.6629C74.176 45.69 77.3241 45.037 80.0413 43.6518L80.0479 43.6484L80.0545 43.645C82.8041 42.2173 84.9573 40.1827 86.4619 37.5554C88.0198 34.9171 88.7629 31.8749 88.7629 28.5C88.7629 25.0894 88.0244 22.0402 86.4574 19.4368C84.953 16.8133 82.7994 14.8019 80.0481 13.4216C77.3292 11.9871 74.1781 11.31 70.6629 11.31H60.3029H58.3029V13.31V43.69ZM83.0117 35.5314L83.004 35.5445L82.9964 35.5577C81.8892 37.4954 80.3137 39.0019 78.2178 40.0916C76.1762 41.1309 73.6798 41.69 70.6629 41.69H62.3029V15.31H70.6629C73.6722 15.31 76.1607 15.8895 78.1971 16.9676L78.2177 16.9785L78.2385 16.9889C80.3233 18.0313 81.8918 19.5092 82.9964 21.4423L83.0085 21.4634L83.0211 21.4842C84.1521 23.3562 84.7629 25.6665 84.7629 28.5C84.7629 31.2794 84.1552 33.5994 83.0117 35.5314ZM104.795 53V55H106.795H118.135H120.135V53V4V2H118.135H106.795H104.795V4V53ZM137.914 53V55H139.914H151.254H153.254V53V15.24H166.934H168.934V13.24V4V2H166.934H124.234H122.234V4V13.24V15.24H124.234H137.914V53ZM141.914 13.24V11.24H139.914H126.234V6H164.934V11.24H151.254H149.254V13.24V51H141.914V13.24ZM108.795 51V6H116.135V51H108.795ZM196.27 41.9V34.56H217.02H219.02V32.56V23.74V21.74H217.02H196.27V15.1H220.03H222.03V13.1V4V2H220.03H183H181V4V53V55H183H220.94H222.94V53V43.9V41.9H220.94H196.27ZM227.963 53V55H229.963H252.223C257.797 55 262.799 53.9477 267.179 51.783L267.187 51.7789L267.196 51.7747C271.56 49.5674 275.015 46.4798 277.506 42.5139L277.513 42.5042C280.022 38.4584 281.243 33.7657 281.243 28.5C281.243 23.1922 280.024 18.4935 277.506 14.4861C275.014 10.5186 271.556 7.45214 267.187 5.29111C262.806 3.07693 257.8 2 252.223 2H229.963H227.963V4V53ZM264.012 35.5314L264.004 35.5445L263.996 35.5577C262.889 37.4953 261.314 39.0018 259.218 40.0914C257.177 41.1308 254.68 41.69 251.663 41.69H243.303V15.31H251.663C254.672 15.31 257.161 15.8895 259.197 16.9676L259.218 16.9785L259.238 16.9889C261.323 18.0312 262.892 19.5092 263.996 21.4423L264.008 21.4634L264.021 21.4842C265.152 23.3562 265.763 25.6665 265.763 28.5C265.763 31.2794 265.155 33.5994 264.012 35.5314ZM285.795 53V55H287.795H299.135H301.135V53V4V2H299.135H287.795H285.795V4V53ZM318.914 53V55H320.914H332.254H334.254V53V15.24H347.934H349.934V13.24V4V2H347.934H305.234H303.234V4V13.24V15.24H305.234H318.914V53Z" stroke="#C3C3C3" stroke-width="4"/>
</svg>
