<svg width="431" height="148" viewBox="0 0 431 148" fill="none" xmlns="http://www.w3.org/2000/svg">
<mask id="path-1-outside-1_185_3" maskUnits="userSpaceOnUse" x="0.809998" y="0.160034" width="430" height="148" fill="black">
<rect fill="white" x="0.809998" y="0.160034" width="430" height="148"/>
<path d="M2.81 52V3.00003H24.02C28.4067 3.00003 32.1867 3.72337 35.36 5.17003C38.5333 6.57003 40.9833 8.60003 42.71 11.26C44.4367 13.92 45.3 17.0934 45.3 20.78C45.3 24.42 44.4367 27.57 42.71 30.23C40.9833 32.89 38.5333 34.9434 35.36 36.39C32.1867 37.79 28.4067 38.49 24.02 38.49H9.11L14.15 33.38V52H2.81ZM14.15 34.64L9.11 29.25H23.39C26.89 29.25 29.5033 28.5034 31.23 27.01C32.9567 25.5167 33.82 23.44 33.82 20.78C33.82 18.0734 32.9567 15.9734 31.23 14.48C29.5033 12.9867 26.89 12.24 23.39 12.24H9.11L14.15 6.85003V34.64ZM53.3959 52V3.00003H74.6059C78.9926 3.00003 82.7726 3.72337 85.9459 5.17003C89.1193 6.57003 91.5693 8.60003 93.2959 11.26C95.0226 13.92 95.8859 17.0934 95.8859 20.78C95.8859 24.42 95.0226 27.57 93.2959 30.23C91.5693 32.8434 89.1193 34.85 85.9459 36.25C82.7726 37.65 78.9926 38.35 74.6059 38.35H59.6959L64.7359 33.38V52H53.3959ZM84.5459 52L72.2959 34.22H84.4059L96.7959 52H84.5459ZM64.7359 34.64L59.6959 29.32H73.9759C77.4759 29.32 80.0893 28.5734 81.8159 27.08C83.5426 25.54 84.4059 23.44 84.4059 20.78C84.4059 18.0734 83.5426 15.9734 81.8159 14.48C80.0893 12.9867 77.4759 12.24 73.9759 12.24H59.6959L64.7359 6.85003V34.64ZM128.671 52.84C124.797 52.84 121.204 52.21 117.891 50.95C114.624 49.69 111.777 47.9167 109.351 45.63C106.971 43.3434 105.104 40.66 103.751 37.58C102.444 34.5 101.791 31.14 101.791 27.5C101.791 23.86 102.444 20.5 103.751 17.42C105.104 14.34 106.994 11.6567 109.421 9.37003C111.847 7.08337 114.694 5.31003 117.961 4.05003C121.227 2.79003 124.774 2.16003 128.601 2.16003C132.474 2.16003 136.021 2.79003 139.241 4.05003C142.507 5.31003 145.331 7.08337 147.711 9.37003C150.137 11.6567 152.027 14.34 153.381 17.42C154.734 20.4534 155.411 23.8134 155.411 27.5C155.411 31.14 154.734 34.5234 153.381 37.65C152.027 40.73 150.137 43.4134 147.711 45.7C145.331 47.94 142.507 49.69 139.241 50.95C136.021 52.21 132.497 52.84 128.671 52.84ZM128.601 43.18C130.794 43.18 132.801 42.8067 134.621 42.06C136.487 41.3134 138.121 40.24 139.521 38.84C140.921 37.44 141.994 35.7834 142.741 33.87C143.534 31.9567 143.931 29.8334 143.931 27.5C143.931 25.1667 143.534 23.0434 142.741 21.13C141.994 19.2167 140.921 17.56 139.521 16.16C138.167 14.76 136.557 13.6867 134.691 12.94C132.824 12.1934 130.794 11.82 128.601 11.82C126.407 11.82 124.377 12.1934 122.511 12.94C120.691 13.6867 119.081 14.76 117.681 16.16C116.281 17.56 115.184 19.2167 114.391 21.13C113.644 23.0434 113.271 25.1667 113.271 27.5C113.271 29.7867 113.644 31.91 114.391 33.87C115.184 35.7834 116.257 37.44 117.611 38.84C119.011 40.24 120.644 41.3134 122.511 42.06C124.377 42.8067 126.407 43.18 128.601 43.18ZM163.933 52V3.00003H186.193C191.513 3.00003 196.203 4.0267 200.263 6.08003C204.323 8.0867 207.496 10.91 209.783 14.55C212.07 18.19 213.213 22.5067 213.213 27.5C213.213 32.4467 212.07 36.7634 209.783 40.45C207.496 44.09 204.323 46.9367 200.263 48.99C196.203 50.9967 191.513 52 186.193 52H163.933ZM175.273 42.69H185.633C188.9 42.69 191.723 42.0834 194.103 40.87C196.53 39.61 198.396 37.8367 199.703 35.55C201.056 33.2634 201.733 30.58 201.733 27.5C201.733 24.3734 201.056 21.69 199.703 19.45C198.396 17.1634 196.53 15.4134 194.103 14.2C191.723 12.94 188.9 12.31 185.633 12.31H175.273V42.69ZM243.535 52.84C236.582 52.84 231.145 50.9034 227.225 47.03C223.305 43.1567 221.345 37.6267 221.345 30.44V3.00003H232.685V30.02C232.685 34.6867 233.642 38.0467 235.555 40.1C237.468 42.1534 240.152 43.18 243.605 43.18C247.058 43.18 249.742 42.1534 251.655 40.1C253.568 38.0467 254.525 34.6867 254.525 30.02V3.00003H265.725V30.44C265.725 37.6267 263.765 43.1567 259.845 47.03C255.925 50.9034 250.488 52.84 243.535 52.84ZM300.381 52.84C296.601 52.84 293.078 52.2334 289.811 51.02C286.591 49.76 283.791 47.9867 281.411 45.7C279.031 43.4134 277.164 40.73 275.811 37.65C274.504 34.57 273.851 31.1867 273.851 27.5C273.851 23.8134 274.504 20.43 275.811 17.35C277.164 14.27 279.031 11.5867 281.411 9.30003C283.838 7.01337 286.661 5.26337 289.881 4.05003C293.101 2.79003 296.624 2.16003 300.451 2.16003C304.698 2.16003 308.524 2.9067 311.931 4.40003C315.384 5.8467 318.278 7.99337 320.611 10.84L313.331 17.56C311.651 15.6467 309.784 14.2234 307.731 13.29C305.678 12.31 303.438 11.82 301.011 11.82C298.724 11.82 296.624 12.1934 294.711 12.94C292.798 13.6867 291.141 14.76 289.741 16.16C288.341 17.56 287.244 19.2167 286.451 21.13C285.704 23.0434 285.331 25.1667 285.331 27.5C285.331 29.8334 285.704 31.9567 286.451 33.87C287.244 35.7834 288.341 37.44 289.741 38.84C291.141 40.24 292.798 41.3134 294.711 42.06C296.624 42.8067 298.724 43.18 301.011 43.18C303.438 43.18 305.678 42.7134 307.731 41.78C309.784 40.8 311.651 39.33 313.331 37.37L320.611 44.09C318.278 46.9367 315.384 49.1067 311.931 50.6C308.524 52.0934 304.674 52.84 300.381 52.84ZM337.94 52V12.24H322.26V3.00003H364.96V12.24H349.28V52H337.94Z"/>
<path d="M10.81 60V11H32.02C36.4067 11 40.1867 11.7234 43.36 13.17C46.5333 14.57 48.9833 16.6 50.71 19.26C52.4367 21.92 53.3 25.0934 53.3 28.78C53.3 32.42 52.4367 35.57 50.71 38.23C48.9833 40.89 46.5333 42.9434 43.36 44.39C40.1867 45.79 36.4067 46.49 32.02 46.49H17.11L22.15 41.38V60H10.81ZM22.15 42.64L17.11 37.25H31.39C34.89 37.25 37.5033 36.5034 39.23 35.01C40.9567 33.5167 41.82 31.44 41.82 28.78C41.82 26.0734 40.9567 23.9734 39.23 22.48C37.5033 20.9867 34.89 20.24 31.39 20.24H17.11L22.15 14.85V42.64Z"/>
<path d="M61.3959 60V11H82.6059C86.9926 11 90.7726 11.7234 93.9459 13.17C97.1193 14.57 99.5693 16.6 101.296 19.26C103.023 21.92 103.886 25.0934 103.886 28.78C103.886 32.42 103.023 35.57 101.296 38.23C99.5693 40.8434 97.1193 42.85 93.9459 44.25C90.7726 45.65 86.9926 46.35 82.6059 46.35H67.6959L72.7359 41.38V60H61.3959ZM92.5459 60L80.2959 42.22H92.4059L104.796 60H92.5459ZM72.7359 42.64L67.6959 37.32H81.9759C85.4759 37.32 88.0893 36.5734 89.8159 35.08C91.5426 33.54 92.4059 31.44 92.4059 28.78C92.4059 26.0734 91.5426 23.9734 89.8159 22.48C88.0893 20.9867 85.4759 20.24 81.9759 20.24H67.6959L72.7359 14.85V42.64Z"/>
<path d="M136.671 60.84C132.797 60.84 129.204 60.21 125.891 58.95C122.624 57.69 119.777 55.9167 117.351 53.63C114.971 51.3434 113.104 48.66 111.751 45.58C110.444 42.5 109.791 39.14 109.791 35.5C109.791 31.86 110.444 28.5 111.751 25.42C113.104 22.34 114.994 19.6567 117.421 17.37C119.847 15.0834 122.694 13.31 125.961 12.05C129.227 10.79 132.774 10.16 136.601 10.16C140.474 10.16 144.021 10.79 147.241 12.05C150.507 13.31 153.331 15.0834 155.711 17.37C158.137 19.6567 160.027 22.34 161.381 25.42C162.734 28.4534 163.411 31.8134 163.411 35.5C163.411 39.14 162.734 42.5234 161.381 45.65C160.027 48.73 158.137 51.4134 155.711 53.7C153.331 55.94 150.507 57.69 147.241 58.95C144.021 60.21 140.497 60.84 136.671 60.84ZM136.601 51.18C138.794 51.18 140.801 50.8067 142.621 50.06C144.487 49.3134 146.121 48.24 147.521 46.84C148.921 45.44 149.994 43.7834 150.741 41.87C151.534 39.9567 151.931 37.8334 151.931 35.5C151.931 33.1667 151.534 31.0434 150.741 29.13C149.994 27.2167 148.921 25.56 147.521 24.16C146.167 22.76 144.557 21.6867 142.691 20.94C140.824 20.1934 138.794 19.82 136.601 19.82C134.407 19.82 132.377 20.1934 130.511 20.94C128.691 21.6867 127.081 22.76 125.681 24.16C124.281 25.56 123.184 27.2167 122.391 29.13C121.644 31.0434 121.271 33.1667 121.271 35.5C121.271 37.7867 121.644 39.91 122.391 41.87C123.184 43.7834 124.257 45.44 125.611 46.84C127.011 48.24 128.644 49.3134 130.511 50.06C132.377 50.8067 134.407 51.18 136.601 51.18Z"/>
<path d="M171.933 60V11H194.193C199.513 11 204.203 12.0267 208.263 14.08C212.323 16.0867 215.496 18.91 217.783 22.55C220.07 26.19 221.213 30.5067 221.213 35.5C221.213 40.4467 220.07 44.7634 217.783 48.45C215.496 52.09 212.323 54.9367 208.263 56.99C204.203 58.9967 199.513 60 194.193 60H171.933ZM183.273 50.69H193.633C196.9 50.69 199.723 50.0834 202.103 48.87C204.53 47.61 206.396 45.8367 207.703 43.55C209.056 41.2634 209.733 38.58 209.733 35.5C209.733 32.3734 209.056 29.69 207.703 27.45C206.396 25.1634 204.53 23.4134 202.103 22.2C199.723 20.94 196.9 20.31 193.633 20.31H183.273V50.69Z"/>
<path d="M251.535 60.84C244.582 60.84 239.145 58.9034 235.225 55.03C231.305 51.1567 229.345 45.6267 229.345 38.44V11H240.685V38.02C240.685 42.6867 241.642 46.0467 243.555 48.1C245.468 50.1534 248.152 51.18 251.605 51.18C255.058 51.18 257.742 50.1534 259.655 48.1C261.568 46.0467 262.525 42.6867 262.525 38.02V11H273.725V38.44C273.725 45.6267 271.765 51.1567 267.845 55.03C263.925 58.9034 258.488 60.84 251.535 60.84Z"/>
<path d="M308.381 60.84C304.601 60.84 301.078 60.2334 297.811 59.02C294.591 57.76 291.791 55.9867 289.411 53.7C287.031 51.4134 285.164 48.73 283.811 45.65C282.504 42.57 281.851 39.1867 281.851 35.5C281.851 31.8134 282.504 28.43 283.811 25.35C285.164 22.27 287.031 19.5867 289.411 17.3C291.838 15.0134 294.661 13.2634 297.881 12.05C301.101 10.79 304.624 10.16 308.451 10.16C312.698 10.16 316.524 10.9067 319.931 12.4C323.384 13.8467 326.278 15.9934 328.611 18.84L321.331 25.56C319.651 23.6467 317.784 22.2234 315.731 21.29C313.678 20.31 311.438 19.82 309.011 19.82C306.724 19.82 304.624 20.1934 302.711 20.94C300.798 21.6867 299.141 22.76 297.741 24.16C296.341 25.56 295.244 27.2167 294.451 29.13C293.704 31.0434 293.331 33.1667 293.331 35.5C293.331 37.8334 293.704 39.9567 294.451 41.87C295.244 43.7834 296.341 45.44 297.741 46.84C299.141 48.24 300.798 49.3134 302.711 50.06C304.624 50.8067 306.724 51.18 309.011 51.18C311.438 51.18 313.678 50.7134 315.731 49.78C317.784 48.8 319.651 47.33 321.331 45.37L328.611 52.09C326.278 54.9367 323.384 57.1067 319.931 58.6C316.524 60.0934 312.674 60.84 308.381 60.84Z"/>
<path d="M345.94 60V20.24H330.26V11H372.96V20.24H357.28V60H345.94Z"/>
<path d="M4.37 145L26.21 96H37.41L59.32 145H47.42L29.5 101.74H33.98L15.99 145H4.37ZM15.29 134.5L18.3 125.89H43.5L46.58 134.5H15.29Z"/>
<path d="M64.4037 145V96H73.7837L102.694 131.28H98.1437V96H109.344V145H100.034L71.0537 109.72H75.6038V145H64.4037Z"/>
<path d="M120.937 145V96H143.197C148.517 96 153.207 97.0267 157.267 99.08C161.327 101.087 164.5 103.91 166.787 107.55C169.074 111.19 170.217 115.507 170.217 120.5C170.217 125.447 169.074 129.763 166.787 133.45C164.5 137.09 161.327 139.937 157.267 141.99C153.207 143.997 148.517 145 143.197 145H120.937ZM132.277 135.69H142.637C145.904 135.69 148.727 135.083 151.107 133.87C153.534 132.61 155.4 130.837 156.707 128.55C158.06 126.263 158.737 123.58 158.737 120.5C158.737 117.373 158.06 114.69 156.707 112.45C155.4 110.163 153.534 108.413 151.107 107.2C148.727 105.94 145.904 105.31 142.637 105.31H132.277V135.69Z"/>
<path d="M213.293 145L192.153 96H204.403L222.883 139.4H215.673L234.433 96H245.703L224.493 145H213.293Z"/>
<path d="M249.794 145V96H261.134V145H249.794Z"/>
<path d="M272.763 145V96H295.023C300.343 96 305.033 97.0267 309.093 99.08C313.153 101.087 316.326 103.91 318.613 107.55C320.9 111.19 322.043 115.507 322.043 120.5C322.043 125.447 320.9 129.763 318.613 133.45C316.326 137.09 313.153 139.937 309.093 141.99C305.033 143.997 300.343 145 295.023 145H272.763ZM284.103 135.69H294.463C297.73 135.69 300.553 135.083 302.933 133.87C305.36 132.61 307.226 130.837 308.533 128.55C309.886 126.263 310.563 123.58 310.563 120.5C310.563 117.373 309.886 114.69 308.533 112.45C307.226 110.163 305.36 108.413 302.933 107.2C300.553 105.94 297.73 105.31 294.463 105.31H284.103V135.69Z"/>
<path d="M341.025 115.74H364.615V124.56H341.025V115.74ZM341.865 135.9H368.535V145H330.595V96H367.625V105.1H341.865V135.9Z"/>
<path d="M401.358 145.84C397.485 145.84 393.891 145.21 390.578 143.95C387.311 142.69 384.465 140.917 382.038 138.63C379.658 136.343 377.791 133.66 376.438 130.58C375.131 127.5 374.478 124.14 374.478 120.5C374.478 116.86 375.131 113.5 376.438 110.42C377.791 107.34 379.681 104.657 382.108 102.37C384.535 100.083 387.381 98.31 390.648 97.05C393.915 95.79 397.461 95.16 401.288 95.16C405.161 95.16 408.708 95.79 411.928 97.05C415.195 98.31 418.018 100.083 420.398 102.37C422.825 104.657 424.715 107.34 426.068 110.42C427.421 113.453 428.098 116.813 428.098 120.5C428.098 124.14 427.421 127.523 426.068 130.65C424.715 133.73 422.825 136.413 420.398 138.7C418.018 140.94 415.195 142.69 411.928 143.95C408.708 145.21 405.185 145.84 401.358 145.84ZM401.288 136.18C403.481 136.18 405.488 135.807 407.308 135.06C409.175 134.313 410.808 133.24 412.208 131.84C413.608 130.44 414.681 128.783 415.428 126.87C416.221 124.957 416.618 122.833 416.618 120.5C416.618 118.167 416.221 116.043 415.428 114.13C414.681 112.217 413.608 110.56 412.208 109.16C410.855 107.76 409.245 106.687 407.378 105.94C405.511 105.193 403.481 104.82 401.288 104.82C399.095 104.82 397.065 105.193 395.198 105.94C393.378 106.687 391.768 107.76 390.368 109.16C388.968 110.56 387.871 112.217 387.078 114.13C386.331 116.043 385.958 118.167 385.958 120.5C385.958 122.787 386.331 124.91 387.078 126.87C387.871 128.783 388.945 130.44 390.298 131.84C391.698 133.24 393.331 134.313 395.198 135.06C397.065 135.807 399.095 136.18 401.288 136.18Z"/>
</mask>
<path d="M10.81 60V11H32.02C36.4067 11 40.1867 11.7234 43.36 13.17C46.5333 14.57 48.9833 16.6 50.71 19.26C52.4367 21.92 53.3 25.0934 53.3 28.78C53.3 32.42 52.4367 35.57 50.71 38.23C48.9833 40.89 46.5333 42.9434 43.36 44.39C40.1867 45.79 36.4067 46.49 32.02 46.49H17.11L22.15 41.38V60H10.81ZM22.15 42.64L17.11 37.25H31.39C34.89 37.25 37.5033 36.5034 39.23 35.01C40.9567 33.5167 41.82 31.44 41.82 28.78C41.82 26.0734 40.9567 23.9734 39.23 22.48C37.5033 20.9867 34.89 20.24 31.39 20.24H17.11L22.15 14.85V42.64Z" fill="white"/>
<path d="M61.3959 60V11H82.6059C86.9926 11 90.7726 11.7234 93.9459 13.17C97.1193 14.57 99.5693 16.6 101.296 19.26C103.023 21.92 103.886 25.0934 103.886 28.78C103.886 32.42 103.023 35.57 101.296 38.23C99.5693 40.8434 97.1193 42.85 93.9459 44.25C90.7726 45.65 86.9926 46.35 82.6059 46.35H67.6959L72.7359 41.38V60H61.3959ZM92.5459 60L80.2959 42.22H92.4059L104.796 60H92.5459ZM72.7359 42.64L67.6959 37.32H81.9759C85.4759 37.32 88.0893 36.5734 89.8159 35.08C91.5426 33.54 92.4059 31.44 92.4059 28.78C92.4059 26.0734 91.5426 23.9734 89.8159 22.48C88.0893 20.9867 85.4759 20.24 81.9759 20.24H67.6959L72.7359 14.85V42.64Z" fill="white"/>
<path d="M136.671 60.84C132.797 60.84 129.204 60.21 125.891 58.95C122.624 57.69 119.777 55.9167 117.351 53.63C114.971 51.3434 113.104 48.66 111.751 45.58C110.444 42.5 109.791 39.14 109.791 35.5C109.791 31.86 110.444 28.5 111.751 25.42C113.104 22.34 114.994 19.6567 117.421 17.37C119.847 15.0834 122.694 13.31 125.961 12.05C129.227 10.79 132.774 10.16 136.601 10.16C140.474 10.16 144.021 10.79 147.241 12.05C150.507 13.31 153.331 15.0834 155.711 17.37C158.137 19.6567 160.027 22.34 161.381 25.42C162.734 28.4534 163.411 31.8134 163.411 35.5C163.411 39.14 162.734 42.5234 161.381 45.65C160.027 48.73 158.137 51.4134 155.711 53.7C153.331 55.94 150.507 57.69 147.241 58.95C144.021 60.21 140.497 60.84 136.671 60.84ZM136.601 51.18C138.794 51.18 140.801 50.8067 142.621 50.06C144.487 49.3134 146.121 48.24 147.521 46.84C148.921 45.44 149.994 43.7834 150.741 41.87C151.534 39.9567 151.931 37.8334 151.931 35.5C151.931 33.1667 151.534 31.0434 150.741 29.13C149.994 27.2167 148.921 25.56 147.521 24.16C146.167 22.76 144.557 21.6867 142.691 20.94C140.824 20.1934 138.794 19.82 136.601 19.82C134.407 19.82 132.377 20.1934 130.511 20.94C128.691 21.6867 127.081 22.76 125.681 24.16C124.281 25.56 123.184 27.2167 122.391 29.13C121.644 31.0434 121.271 33.1667 121.271 35.5C121.271 37.7867 121.644 39.91 122.391 41.87C123.184 43.7834 124.257 45.44 125.611 46.84C127.011 48.24 128.644 49.3134 130.511 50.06C132.377 50.8067 134.407 51.18 136.601 51.18Z" fill="white"/>
<path d="M171.933 60V11H194.193C199.513 11 204.203 12.0267 208.263 14.08C212.323 16.0867 215.496 18.91 217.783 22.55C220.07 26.19 221.213 30.5067 221.213 35.5C221.213 40.4467 220.07 44.7634 217.783 48.45C215.496 52.09 212.323 54.9367 208.263 56.99C204.203 58.9967 199.513 60 194.193 60H171.933ZM183.273 50.69H193.633C196.9 50.69 199.723 50.0834 202.103 48.87C204.53 47.61 206.396 45.8367 207.703 43.55C209.056 41.2634 209.733 38.58 209.733 35.5C209.733 32.3734 209.056 29.69 207.703 27.45C206.396 25.1634 204.53 23.4134 202.103 22.2C199.723 20.94 196.9 20.31 193.633 20.31H183.273V50.69Z" fill="white"/>
<path d="M251.535 60.84C244.582 60.84 239.145 58.9034 235.225 55.03C231.305 51.1567 229.345 45.6267 229.345 38.44V11H240.685V38.02C240.685 42.6867 241.642 46.0467 243.555 48.1C245.468 50.1534 248.152 51.18 251.605 51.18C255.058 51.18 257.742 50.1534 259.655 48.1C261.568 46.0467 262.525 42.6867 262.525 38.02V11H273.725V38.44C273.725 45.6267 271.765 51.1567 267.845 55.03C263.925 58.9034 258.488 60.84 251.535 60.84Z" fill="white"/>
<path d="M308.381 60.84C304.601 60.84 301.078 60.2334 297.811 59.02C294.591 57.76 291.791 55.9867 289.411 53.7C287.031 51.4134 285.164 48.73 283.811 45.65C282.504 42.57 281.851 39.1867 281.851 35.5C281.851 31.8134 282.504 28.43 283.811 25.35C285.164 22.27 287.031 19.5867 289.411 17.3C291.838 15.0134 294.661 13.2634 297.881 12.05C301.101 10.79 304.624 10.16 308.451 10.16C312.698 10.16 316.524 10.9067 319.931 12.4C323.384 13.8467 326.278 15.9934 328.611 18.84L321.331 25.56C319.651 23.6467 317.784 22.2234 315.731 21.29C313.678 20.31 311.438 19.82 309.011 19.82C306.724 19.82 304.624 20.1934 302.711 20.94C300.798 21.6867 299.141 22.76 297.741 24.16C296.341 25.56 295.244 27.2167 294.451 29.13C293.704 31.0434 293.331 33.1667 293.331 35.5C293.331 37.8334 293.704 39.9567 294.451 41.87C295.244 43.7834 296.341 45.44 297.741 46.84C299.141 48.24 300.798 49.3134 302.711 50.06C304.624 50.8067 306.724 51.18 309.011 51.18C311.438 51.18 313.678 50.7134 315.731 49.78C317.784 48.8 319.651 47.33 321.331 45.37L328.611 52.09C326.278 54.9367 323.384 57.1067 319.931 58.6C316.524 60.0934 312.674 60.84 308.381 60.84Z" fill="white"/>
<path d="M345.94 60V20.24H330.26V11H372.96V20.24H357.28V60H345.94Z" fill="white"/>
<path d="M4.37 145L26.21 96H37.41L59.32 145H47.42L29.5 101.74H33.98L15.99 145H4.37ZM15.29 134.5L18.3 125.89H43.5L46.58 134.5H15.29Z" fill="white"/>
<path d="M64.4037 145V96H73.7837L102.694 131.28H98.1437V96H109.344V145H100.034L71.0537 109.72H75.6038V145H64.4037Z" fill="white"/>
<path d="M120.937 145V96H143.197C148.517 96 153.207 97.0267 157.267 99.08C161.327 101.087 164.5 103.91 166.787 107.55C169.074 111.19 170.217 115.507 170.217 120.5C170.217 125.447 169.074 129.763 166.787 133.45C164.5 137.09 161.327 139.937 157.267 141.99C153.207 143.997 148.517 145 143.197 145H120.937ZM132.277 135.69H142.637C145.904 135.69 148.727 135.083 151.107 133.87C153.534 132.61 155.4 130.837 156.707 128.55C158.06 126.263 158.737 123.58 158.737 120.5C158.737 117.373 158.06 114.69 156.707 112.45C155.4 110.163 153.534 108.413 151.107 107.2C148.727 105.94 145.904 105.31 142.637 105.31H132.277V135.69Z" fill="white"/>
<path d="M213.293 145L192.153 96H204.403L222.883 139.4H215.673L234.433 96H245.703L224.493 145H213.293Z" fill="white"/>
<path d="M249.794 145V96H261.134V145H249.794Z" fill="white"/>
<path d="M272.763 145V96H295.023C300.343 96 305.033 97.0267 309.093 99.08C313.153 101.087 316.326 103.91 318.613 107.55C320.9 111.19 322.043 115.507 322.043 120.5C322.043 125.447 320.9 129.763 318.613 133.45C316.326 137.09 313.153 139.937 309.093 141.99C305.033 143.997 300.343 145 295.023 145H272.763ZM284.103 135.69H294.463C297.73 135.69 300.553 135.083 302.933 133.87C305.36 132.61 307.226 130.837 308.533 128.55C309.886 126.263 310.563 123.58 310.563 120.5C310.563 117.373 309.886 114.69 308.533 112.45C307.226 110.163 305.36 108.413 302.933 107.2C300.553 105.94 297.73 105.31 294.463 105.31H284.103V135.69Z" fill="white"/>
<path d="M341.025 115.74H364.615V124.56H341.025V115.74ZM341.865 135.9H368.535V145H330.595V96H367.625V105.1H341.865V135.9Z" fill="white"/>
<path d="M401.358 145.84C397.485 145.84 393.891 145.21 390.578 143.95C387.311 142.69 384.465 140.917 382.038 138.63C379.658 136.343 377.791 133.66 376.438 130.58C375.131 127.5 374.478 124.14 374.478 120.5C374.478 116.86 375.131 113.5 376.438 110.42C377.791 107.34 379.681 104.657 382.108 102.37C384.535 100.083 387.381 98.31 390.648 97.05C393.915 95.79 397.461 95.16 401.288 95.16C405.161 95.16 408.708 95.79 411.928 97.05C415.195 98.31 418.018 100.083 420.398 102.37C422.825 104.657 424.715 107.34 426.068 110.42C427.421 113.453 428.098 116.813 428.098 120.5C428.098 124.14 427.421 127.523 426.068 130.65C424.715 133.73 422.825 136.413 420.398 138.7C418.018 140.94 415.195 142.69 411.928 143.95C408.708 145.21 405.185 145.84 401.358 145.84ZM401.288 136.18C403.481 136.18 405.488 135.807 407.308 135.06C409.175 134.313 410.808 133.24 412.208 131.84C413.608 130.44 414.681 128.783 415.428 126.87C416.221 124.957 416.618 122.833 416.618 120.5C416.618 118.167 416.221 116.043 415.428 114.13C414.681 112.217 413.608 110.56 412.208 109.16C410.855 107.76 409.245 106.687 407.378 105.94C405.511 105.193 403.481 104.82 401.288 104.82C399.095 104.82 397.065 105.193 395.198 105.94C393.378 106.687 391.768 107.76 390.368 109.16C388.968 110.56 387.871 112.217 387.078 114.13C386.331 116.043 385.958 118.167 385.958 120.5C385.958 122.787 386.331 124.91 387.078 126.87C387.871 128.783 388.945 130.44 390.298 131.84C391.698 133.24 393.331 134.313 395.198 135.06C397.065 135.807 399.095 136.18 401.288 136.18Z" fill="white"/>
<path d="M2.81 52V3.00003H24.02C28.4067 3.00003 32.1867 3.72337 35.36 5.17003C38.5333 6.57003 40.9833 8.60003 42.71 11.26C44.4367 13.92 45.3 17.0934 45.3 20.78C45.3 24.42 44.4367 27.57 42.71 30.23C40.9833 32.89 38.5333 34.9434 35.36 36.39C32.1867 37.79 28.4067 38.49 24.02 38.49H9.11L14.15 33.38V52H2.81ZM14.15 34.64L9.11 29.25H23.39C26.89 29.25 29.5033 28.5034 31.23 27.01C32.9567 25.5167 33.82 23.44 33.82 20.78C33.82 18.0734 32.9567 15.9734 31.23 14.48C29.5033 12.9867 26.89 12.24 23.39 12.24H9.11L14.15 6.85003V34.64ZM53.3959 52V3.00003H74.6059C78.9926 3.00003 82.7726 3.72337 85.9459 5.17003C89.1193 6.57003 91.5693 8.60003 93.2959 11.26C95.0226 13.92 95.8859 17.0934 95.8859 20.78C95.8859 24.42 95.0226 27.57 93.2959 30.23C91.5693 32.8434 89.1193 34.85 85.9459 36.25C82.7726 37.65 78.9926 38.35 74.6059 38.35H59.6959L64.7359 33.38V52H53.3959ZM84.5459 52L72.2959 34.22H84.4059L96.7959 52H84.5459ZM64.7359 34.64L59.6959 29.32H73.9759C77.4759 29.32 80.0893 28.5734 81.8159 27.08C83.5426 25.54 84.4059 23.44 84.4059 20.78C84.4059 18.0734 83.5426 15.9734 81.8159 14.48C80.0893 12.9867 77.4759 12.24 73.9759 12.24H59.6959L64.7359 6.85003V34.64ZM128.671 52.84C124.797 52.84 121.204 52.21 117.891 50.95C114.624 49.69 111.777 47.9167 109.351 45.63C106.971 43.3434 105.104 40.66 103.751 37.58C102.444 34.5 101.791 31.14 101.791 27.5C101.791 23.86 102.444 20.5 103.751 17.42C105.104 14.34 106.994 11.6567 109.421 9.37003C111.847 7.08337 114.694 5.31003 117.961 4.05003C121.227 2.79003 124.774 2.16003 128.601 2.16003C132.474 2.16003 136.021 2.79003 139.241 4.05003C142.507 5.31003 145.331 7.08337 147.711 9.37003C150.137 11.6567 152.027 14.34 153.381 17.42C154.734 20.4534 155.411 23.8134 155.411 27.5C155.411 31.14 154.734 34.5234 153.381 37.65C152.027 40.73 150.137 43.4134 147.711 45.7C145.331 47.94 142.507 49.69 139.241 50.95C136.021 52.21 132.497 52.84 128.671 52.84ZM128.601 43.18C130.794 43.18 132.801 42.8067 134.621 42.06C136.487 41.3134 138.121 40.24 139.521 38.84C140.921 37.44 141.994 35.7834 142.741 33.87C143.534 31.9567 143.931 29.8334 143.931 27.5C143.931 25.1667 143.534 23.0434 142.741 21.13C141.994 19.2167 140.921 17.56 139.521 16.16C138.167 14.76 136.557 13.6867 134.691 12.94C132.824 12.1934 130.794 11.82 128.601 11.82C126.407 11.82 124.377 12.1934 122.511 12.94C120.691 13.6867 119.081 14.76 117.681 16.16C116.281 17.56 115.184 19.2167 114.391 21.13C113.644 23.0434 113.271 25.1667 113.271 27.5C113.271 29.7867 113.644 31.91 114.391 33.87C115.184 35.7834 116.257 37.44 117.611 38.84C119.011 40.24 120.644 41.3134 122.511 42.06C124.377 42.8067 126.407 43.18 128.601 43.18ZM163.933 52V3.00003H186.193C191.513 3.00003 196.203 4.0267 200.263 6.08003C204.323 8.0867 207.496 10.91 209.783 14.55C212.07 18.19 213.213 22.5067 213.213 27.5C213.213 32.4467 212.07 36.7634 209.783 40.45C207.496 44.09 204.323 46.9367 200.263 48.99C196.203 50.9967 191.513 52 186.193 52H163.933ZM175.273 42.69H185.633C188.9 42.69 191.723 42.0834 194.103 40.87C196.53 39.61 198.396 37.8367 199.703 35.55C201.056 33.2634 201.733 30.58 201.733 27.5C201.733 24.3734 201.056 21.69 199.703 19.45C198.396 17.1634 196.53 15.4134 194.103 14.2C191.723 12.94 188.9 12.31 185.633 12.31H175.273V42.69ZM243.535 52.84C236.582 52.84 231.145 50.9034 227.225 47.03C223.305 43.1567 221.345 37.6267 221.345 30.44V3.00003H232.685V30.02C232.685 34.6867 233.642 38.0467 235.555 40.1C237.468 42.1534 240.152 43.18 243.605 43.18C247.058 43.18 249.742 42.1534 251.655 40.1C253.568 38.0467 254.525 34.6867 254.525 30.02V3.00003H265.725V30.44C265.725 37.6267 263.765 43.1567 259.845 47.03C255.925 50.9034 250.488 52.84 243.535 52.84ZM300.381 52.84C296.601 52.84 293.078 52.2334 289.811 51.02C286.591 49.76 283.791 47.9867 281.411 45.7C279.031 43.4134 277.164 40.73 275.811 37.65C274.504 34.57 273.851 31.1867 273.851 27.5C273.851 23.8134 274.504 20.43 275.811 17.35C277.164 14.27 279.031 11.5867 281.411 9.30003C283.838 7.01337 286.661 5.26337 289.881 4.05003C293.101 2.79003 296.624 2.16003 300.451 2.16003C304.698 2.16003 308.524 2.9067 311.931 4.40003C315.384 5.8467 318.278 7.99337 320.611 10.84L313.331 17.56C311.651 15.6467 309.784 14.2234 307.731 13.29C305.678 12.31 303.438 11.82 301.011 11.82C298.724 11.82 296.624 12.1934 294.711 12.94C292.798 13.6867 291.141 14.76 289.741 16.16C288.341 17.56 287.244 19.2167 286.451 21.13C285.704 23.0434 285.331 25.1667 285.331 27.5C285.331 29.8334 285.704 31.9567 286.451 33.87C287.244 35.7834 288.341 37.44 289.741 38.84C291.141 40.24 292.798 41.3134 294.711 42.06C296.624 42.8067 298.724 43.18 301.011 43.18C303.438 43.18 305.678 42.7134 307.731 41.78C309.784 40.8 311.651 39.33 313.331 37.37L320.611 44.09C318.278 46.9367 315.384 49.1067 311.931 50.6C308.524 52.0934 304.674 52.84 300.381 52.84ZM337.94 52V12.24H322.26V3.00003H364.96V12.24H349.28V52H337.94Z" stroke="#D9D9D9" stroke-width="4" mask="url(#path-1-outside-1_185_3)"/>
<path d="M10.81 60V11H32.02C36.4067 11 40.1867 11.7234 43.36 13.17C46.5333 14.57 48.9833 16.6 50.71 19.26C52.4367 21.92 53.3 25.0934 53.3 28.78C53.3 32.42 52.4367 35.57 50.71 38.23C48.9833 40.89 46.5333 42.9434 43.36 44.39C40.1867 45.79 36.4067 46.49 32.02 46.49H17.11L22.15 41.38V60H10.81ZM22.15 42.64L17.11 37.25H31.39C34.89 37.25 37.5033 36.5034 39.23 35.01C40.9567 33.5167 41.82 31.44 41.82 28.78C41.82 26.0734 40.9567 23.9734 39.23 22.48C37.5033 20.9867 34.89 20.24 31.39 20.24H17.11L22.15 14.85V42.64Z" stroke="#D9D9D9" stroke-width="4" mask="url(#path-1-outside-1_185_3)"/>
<path d="M61.3959 60V11H82.6059C86.9926 11 90.7726 11.7234 93.9459 13.17C97.1193 14.57 99.5693 16.6 101.296 19.26C103.023 21.92 103.886 25.0934 103.886 28.78C103.886 32.42 103.023 35.57 101.296 38.23C99.5693 40.8434 97.1193 42.85 93.9459 44.25C90.7726 45.65 86.9926 46.35 82.6059 46.35H67.6959L72.7359 41.38V60H61.3959ZM92.5459 60L80.2959 42.22H92.4059L104.796 60H92.5459ZM72.7359 42.64L67.6959 37.32H81.9759C85.4759 37.32 88.0893 36.5734 89.8159 35.08C91.5426 33.54 92.4059 31.44 92.4059 28.78C92.4059 26.0734 91.5426 23.9734 89.8159 22.48C88.0893 20.9867 85.4759 20.24 81.9759 20.24H67.6959L72.7359 14.85V42.64Z" stroke="#D9D9D9" stroke-width="4" mask="url(#path-1-outside-1_185_3)"/>
<path d="M136.671 60.84C132.797 60.84 129.204 60.21 125.891 58.95C122.624 57.69 119.777 55.9167 117.351 53.63C114.971 51.3434 113.104 48.66 111.751 45.58C110.444 42.5 109.791 39.14 109.791 35.5C109.791 31.86 110.444 28.5 111.751 25.42C113.104 22.34 114.994 19.6567 117.421 17.37C119.847 15.0834 122.694 13.31 125.961 12.05C129.227 10.79 132.774 10.16 136.601 10.16C140.474 10.16 144.021 10.79 147.241 12.05C150.507 13.31 153.331 15.0834 155.711 17.37C158.137 19.6567 160.027 22.34 161.381 25.42C162.734 28.4534 163.411 31.8134 163.411 35.5C163.411 39.14 162.734 42.5234 161.381 45.65C160.027 48.73 158.137 51.4134 155.711 53.7C153.331 55.94 150.507 57.69 147.241 58.95C144.021 60.21 140.497 60.84 136.671 60.84ZM136.601 51.18C138.794 51.18 140.801 50.8067 142.621 50.06C144.487 49.3134 146.121 48.24 147.521 46.84C148.921 45.44 149.994 43.7834 150.741 41.87C151.534 39.9567 151.931 37.8334 151.931 35.5C151.931 33.1667 151.534 31.0434 150.741 29.13C149.994 27.2167 148.921 25.56 147.521 24.16C146.167 22.76 144.557 21.6867 142.691 20.94C140.824 20.1934 138.794 19.82 136.601 19.82C134.407 19.82 132.377 20.1934 130.511 20.94C128.691 21.6867 127.081 22.76 125.681 24.16C124.281 25.56 123.184 27.2167 122.391 29.13C121.644 31.0434 121.271 33.1667 121.271 35.5C121.271 37.7867 121.644 39.91 122.391 41.87C123.184 43.7834 124.257 45.44 125.611 46.84C127.011 48.24 128.644 49.3134 130.511 50.06C132.377 50.8067 134.407 51.18 136.601 51.18Z" stroke="#D9D9D9" stroke-width="4" mask="url(#path-1-outside-1_185_3)"/>
<path d="M171.933 60V11H194.193C199.513 11 204.203 12.0267 208.263 14.08C212.323 16.0867 215.496 18.91 217.783 22.55C220.07 26.19 221.213 30.5067 221.213 35.5C221.213 40.4467 220.07 44.7634 217.783 48.45C215.496 52.09 212.323 54.9367 208.263 56.99C204.203 58.9967 199.513 60 194.193 60H171.933ZM183.273 50.69H193.633C196.9 50.69 199.723 50.0834 202.103 48.87C204.53 47.61 206.396 45.8367 207.703 43.55C209.056 41.2634 209.733 38.58 209.733 35.5C209.733 32.3734 209.056 29.69 207.703 27.45C206.396 25.1634 204.53 23.4134 202.103 22.2C199.723 20.94 196.9 20.31 193.633 20.31H183.273V50.69Z" stroke="#D9D9D9" stroke-width="4" mask="url(#path-1-outside-1_185_3)"/>
<path d="M251.535 60.84C244.582 60.84 239.145 58.9034 235.225 55.03C231.305 51.1567 229.345 45.6267 229.345 38.44V11H240.685V38.02C240.685 42.6867 241.642 46.0467 243.555 48.1C245.468 50.1534 248.152 51.18 251.605 51.18C255.058 51.18 257.742 50.1534 259.655 48.1C261.568 46.0467 262.525 42.6867 262.525 38.02V11H273.725V38.44C273.725 45.6267 271.765 51.1567 267.845 55.03C263.925 58.9034 258.488 60.84 251.535 60.84Z" stroke="#D9D9D9" stroke-width="4" mask="url(#path-1-outside-1_185_3)"/>
<path d="M308.381 60.84C304.601 60.84 301.078 60.2334 297.811 59.02C294.591 57.76 291.791 55.9867 289.411 53.7C287.031 51.4134 285.164 48.73 283.811 45.65C282.504 42.57 281.851 39.1867 281.851 35.5C281.851 31.8134 282.504 28.43 283.811 25.35C285.164 22.27 287.031 19.5867 289.411 17.3C291.838 15.0134 294.661 13.2634 297.881 12.05C301.101 10.79 304.624 10.16 308.451 10.16C312.698 10.16 316.524 10.9067 319.931 12.4C323.384 13.8467 326.278 15.9934 328.611 18.84L321.331 25.56C319.651 23.6467 317.784 22.2234 315.731 21.29C313.678 20.31 311.438 19.82 309.011 19.82C306.724 19.82 304.624 20.1934 302.711 20.94C300.798 21.6867 299.141 22.76 297.741 24.16C296.341 25.56 295.244 27.2167 294.451 29.13C293.704 31.0434 293.331 33.1667 293.331 35.5C293.331 37.8334 293.704 39.9567 294.451 41.87C295.244 43.7834 296.341 45.44 297.741 46.84C299.141 48.24 300.798 49.3134 302.711 50.06C304.624 50.8067 306.724 51.18 309.011 51.18C311.438 51.18 313.678 50.7134 315.731 49.78C317.784 48.8 319.651 47.33 321.331 45.37L328.611 52.09C326.278 54.9367 323.384 57.1067 319.931 58.6C316.524 60.0934 312.674 60.84 308.381 60.84Z" stroke="#D9D9D9" stroke-width="4" mask="url(#path-1-outside-1_185_3)"/>
<path d="M345.94 60V20.24H330.26V11H372.96V20.24H357.28V60H345.94Z" stroke="#D9D9D9" stroke-width="4" mask="url(#path-1-outside-1_185_3)"/>
<path d="M4.37 145L26.21 96H37.41L59.32 145H47.42L29.5 101.74H33.98L15.99 145H4.37ZM15.29 134.5L18.3 125.89H43.5L46.58 134.5H15.29Z" stroke="#D9D9D9" stroke-width="4" mask="url(#path-1-outside-1_185_3)"/>
<path d="M64.4037 145V96H73.7837L102.694 131.28H98.1437V96H109.344V145H100.034L71.0537 109.72H75.6038V145H64.4037Z" stroke="#D9D9D9" stroke-width="4" mask="url(#path-1-outside-1_185_3)"/>
<path d="M120.937 145V96H143.197C148.517 96 153.207 97.0267 157.267 99.08C161.327 101.087 164.5 103.91 166.787 107.55C169.074 111.19 170.217 115.507 170.217 120.5C170.217 125.447 169.074 129.763 166.787 133.45C164.5 137.09 161.327 139.937 157.267 141.99C153.207 143.997 148.517 145 143.197 145H120.937ZM132.277 135.69H142.637C145.904 135.69 148.727 135.083 151.107 133.87C153.534 132.61 155.4 130.837 156.707 128.55C158.06 126.263 158.737 123.58 158.737 120.5C158.737 117.373 158.06 114.69 156.707 112.45C155.4 110.163 153.534 108.413 151.107 107.2C148.727 105.94 145.904 105.31 142.637 105.31H132.277V135.69Z" stroke="#D9D9D9" stroke-width="4" mask="url(#path-1-outside-1_185_3)"/>
<path d="M213.293 145L192.153 96H204.403L222.883 139.4H215.673L234.433 96H245.703L224.493 145H213.293Z" stroke="#D9D9D9" stroke-width="4" mask="url(#path-1-outside-1_185_3)"/>
<path d="M249.794 145V96H261.134V145H249.794Z" stroke="#D9D9D9" stroke-width="4" mask="url(#path-1-outside-1_185_3)"/>
<path d="M272.763 145V96H295.023C300.343 96 305.033 97.0267 309.093 99.08C313.153 101.087 316.326 103.91 318.613 107.55C320.9 111.19 322.043 115.507 322.043 120.5C322.043 125.447 320.9 129.763 318.613 133.45C316.326 137.09 313.153 139.937 309.093 141.99C305.033 143.997 300.343 145 295.023 145H272.763ZM284.103 135.69H294.463C297.73 135.69 300.553 135.083 302.933 133.87C305.36 132.61 307.226 130.837 308.533 128.55C309.886 126.263 310.563 123.58 310.563 120.5C310.563 117.373 309.886 114.69 308.533 112.45C307.226 110.163 305.36 108.413 302.933 107.2C300.553 105.94 297.73 105.31 294.463 105.31H284.103V135.69Z" stroke="#D9D9D9" stroke-width="4" mask="url(#path-1-outside-1_185_3)"/>
<path d="M341.025 115.74H364.615V124.56H341.025V115.74ZM341.865 135.9H368.535V145H330.595V96H367.625V105.1H341.865V135.9Z" stroke="#D9D9D9" stroke-width="4" mask="url(#path-1-outside-1_185_3)"/>
<path d="M401.358 145.84C397.485 145.84 393.891 145.21 390.578 143.95C387.311 142.69 384.465 140.917 382.038 138.63C379.658 136.343 377.791 133.66 376.438 130.58C375.131 127.5 374.478 124.14 374.478 120.5C374.478 116.86 375.131 113.5 376.438 110.42C377.791 107.34 379.681 104.657 382.108 102.37C384.535 100.083 387.381 98.31 390.648 97.05C393.915 95.79 397.461 95.16 401.288 95.16C405.161 95.16 408.708 95.79 411.928 97.05C415.195 98.31 418.018 100.083 420.398 102.37C422.825 104.657 424.715 107.34 426.068 110.42C427.421 113.453 428.098 116.813 428.098 120.5C428.098 124.14 427.421 127.523 426.068 130.65C424.715 133.73 422.825 136.413 420.398 138.7C418.018 140.94 415.195 142.69 411.928 143.95C408.708 145.21 405.185 145.84 401.358 145.84ZM401.288 136.18C403.481 136.18 405.488 135.807 407.308 135.06C409.175 134.313 410.808 133.24 412.208 131.84C413.608 130.44 414.681 128.783 415.428 126.87C416.221 124.957 416.618 122.833 416.618 120.5C416.618 118.167 416.221 116.043 415.428 114.13C414.681 112.217 413.608 110.56 412.208 109.16C410.855 107.76 409.245 106.687 407.378 105.94C405.511 105.193 403.481 104.82 401.288 104.82C399.095 104.82 397.065 105.193 395.198 105.94C393.378 106.687 391.768 107.76 390.368 109.16C388.968 110.56 387.871 112.217 387.078 114.13C386.331 116.043 385.958 118.167 385.958 120.5C385.958 122.787 386.331 124.91 387.078 126.87C387.871 128.783 388.945 130.44 390.298 131.84C391.698 133.24 393.331 134.313 395.198 135.06C397.065 135.807 399.095 136.18 401.288 136.18Z" stroke="#D9D9D9" stroke-width="4" mask="url(#path-1-outside-1_185_3)"/>
</svg>
