<svg width="586" height="53" viewBox="0 0 586 53" fill="none" xmlns="http://www.w3.org/2000/svg">
<mask id="path-1-outside-1_307_10" maskUnits="userSpaceOnUse" x="0.809998" y="0" width="585" height="53" fill="black">
<rect fill="white" x="0.809998" width="585" height="53"/>
<path d="M2.81 51V2H24.02C28.4067 2 32.1867 2.72333 35.36 4.17C38.5333 5.57 40.9833 7.6 42.71 10.26C44.4367 12.92 45.3 16.0933 45.3 19.78C45.3 23.42 44.4367 26.57 42.71 29.23C40.9833 31.8433 38.5333 33.85 35.36 35.25C32.1867 36.65 28.4067 37.35 24.02 37.35H9.11L14.15 32.38V51H2.81ZM33.96 51L21.71 33.22H33.82L46.21 51H33.96ZM14.15 33.64L9.11 28.32H23.39C26.89 28.32 29.5033 27.5733 31.23 26.08C32.9567 24.54 33.82 22.44 33.82 19.78C33.82 17.0733 32.9567 14.9733 31.23 13.48C29.5033 11.9867 26.89 11.24 23.39 11.24H9.11L14.15 5.85V33.64ZM64.7146 21.74H88.3046V30.56H64.7146V21.74ZM65.5546 41.9H92.2246V51H54.2846V2H91.3146V11.1H65.5546V41.9ZM101.247 51V2H122.457C126.844 2 130.624 2.72333 133.798 4.17C136.971 5.57 139.421 7.6 141.148 10.26C142.874 12.92 143.738 16.0933 143.738 19.78C143.738 23.42 142.874 26.57 141.148 29.23C139.421 31.89 136.971 33.9433 133.798 35.39C130.624 36.79 126.844 37.49 122.457 37.49H107.548L112.587 32.38V51H101.247ZM112.587 33.64L107.548 28.25H121.827C125.328 28.25 127.941 27.5033 129.667 26.01C131.394 24.5167 132.257 22.44 132.257 19.78C132.257 17.0733 131.394 14.9733 129.667 13.48C127.941 11.9867 125.328 11.24 121.827 11.24H107.548L112.587 5.85V33.64ZM162.263 21.74H185.853V30.56H162.263V21.74ZM163.103 41.9H189.773V51H151.833V2H188.863V11.1H163.103V41.9ZM192.356 51L214.196 2H225.396L247.306 51H235.406L217.486 7.74H221.966L203.976 51H192.356ZM203.276 40.5L206.286 31.89H231.486L234.566 40.5H203.276ZM260.079 51V11.24H244.399V2H287.099V11.24H271.419V51H260.079Z"/>
<path d="M298.81 51V2H320.02C324.407 2 328.187 2.72333 331.36 4.17C334.533 5.57 336.983 7.6 338.71 10.26C340.437 12.92 341.3 16.0933 341.3 19.78C341.3 23.42 340.437 26.57 338.71 29.23C336.983 31.8433 334.533 33.85 331.36 35.25C328.187 36.65 324.407 37.35 320.02 37.35H305.11L310.15 32.38V51H298.81ZM329.96 51L317.71 33.22H329.82L342.21 51H329.96ZM310.15 33.64L305.11 28.32H319.39C322.89 28.32 325.503 27.5733 327.23 26.08C328.957 24.54 329.82 22.44 329.82 19.78C329.82 17.0733 328.957 14.9733 327.23 13.48C325.503 11.9867 322.89 11.24 319.39 11.24H305.11L310.15 5.85V33.64Z"/>
<path d="M360.715 21.74H384.305V30.56H360.715V21.74ZM361.555 41.9H388.225V51H350.285V2H387.315V11.1H361.555V41.9Z"/>
<path d="M397.247 51V2H418.457C422.844 2 426.624 2.72333 429.797 4.17C432.971 5.57 435.421 7.6 437.147 10.26C438.874 12.92 439.737 16.0933 439.737 19.78C439.737 23.42 438.874 26.57 437.147 29.23C435.421 31.89 432.971 33.9433 429.797 35.39C426.624 36.79 422.844 37.49 418.457 37.49H403.547L408.587 32.38V51H397.247ZM408.587 33.64L403.547 28.25H417.827C421.327 28.25 423.941 27.5033 425.668 26.01C427.394 24.5167 428.258 22.44 428.258 19.78C428.258 17.0733 427.394 14.9733 425.668 13.48C423.941 11.9867 421.327 11.24 417.827 11.24H403.547L408.587 5.85V33.64Z"/>
<path d="M458.263 21.74H481.853V30.56H458.263V21.74ZM459.103 41.9H485.773V51H447.833V2H484.863V11.1H459.103V41.9Z"/>
<path d="M488.356 51L510.196 2H521.396L543.306 51H531.406L513.486 7.74H517.966L499.976 51H488.356ZM499.276 40.5L502.286 31.89H527.486L530.566 40.5H499.276Z"/>
<path d="M556.079 51V11.24H540.399V2H583.099V11.24H567.419V51H556.079Z"/>
</mask>
<path d="M298.81 51V2H320.02C324.407 2 328.187 2.72333 331.36 4.17C334.533 5.57 336.983 7.6 338.71 10.26C340.437 12.92 341.3 16.0933 341.3 19.78C341.3 23.42 340.437 26.57 338.71 29.23C336.983 31.8433 334.533 33.85 331.36 35.25C328.187 36.65 324.407 37.35 320.02 37.35H305.11L310.15 32.38V51H298.81ZM329.96 51L317.71 33.22H329.82L342.21 51H329.96ZM310.15 33.64L305.11 28.32H319.39C322.89 28.32 325.503 27.5733 327.23 26.08C328.957 24.54 329.82 22.44 329.82 19.78C329.82 17.0733 328.957 14.9733 327.23 13.48C325.503 11.9867 322.89 11.24 319.39 11.24H305.11L310.15 5.85V33.64Z" fill="#D9D9D9"/>
<path d="M360.715 21.74H384.305V30.56H360.715V21.74ZM361.555 41.9H388.225V51H350.285V2H387.315V11.1H361.555V41.9Z" fill="#D9D9D9"/>
<path d="M397.247 51V2H418.457C422.844 2 426.624 2.72333 429.797 4.17C432.971 5.57 435.421 7.6 437.147 10.26C438.874 12.92 439.737 16.0933 439.737 19.78C439.737 23.42 438.874 26.57 437.147 29.23C435.421 31.89 432.971 33.9433 429.797 35.39C426.624 36.79 422.844 37.49 418.457 37.49H403.547L408.587 32.38V51H397.247ZM408.587 33.64L403.547 28.25H417.827C421.327 28.25 423.941 27.5033 425.668 26.01C427.394 24.5167 428.258 22.44 428.258 19.78C428.258 17.0733 427.394 14.9733 425.668 13.48C423.941 11.9867 421.327 11.24 417.827 11.24H403.547L408.587 5.85V33.64Z" fill="#D9D9D9"/>
<path d="M458.263 21.74H481.853V30.56H458.263V21.74ZM459.103 41.9H485.773V51H447.833V2H484.863V11.1H459.103V41.9Z" fill="#D9D9D9"/>
<path d="M488.356 51L510.196 2H521.396L543.306 51H531.406L513.486 7.74H517.966L499.976 51H488.356ZM499.276 40.5L502.286 31.89H527.486L530.566 40.5H499.276Z" fill="#D9D9D9"/>
<path d="M556.079 51V11.24H540.399V2H583.099V11.24H567.419V51H556.079Z" fill="#D9D9D9"/>
<path d="M2.81 51V2H24.02C28.4067 2 32.1867 2.72333 35.36 4.17C38.5333 5.57 40.9833 7.6 42.71 10.26C44.4367 12.92 45.3 16.0933 45.3 19.78C45.3 23.42 44.4367 26.57 42.71 29.23C40.9833 31.8433 38.5333 33.85 35.36 35.25C32.1867 36.65 28.4067 37.35 24.02 37.35H9.11L14.15 32.38V51H2.81ZM33.96 51L21.71 33.22H33.82L46.21 51H33.96ZM14.15 33.64L9.11 28.32H23.39C26.89 28.32 29.5033 27.5733 31.23 26.08C32.9567 24.54 33.82 22.44 33.82 19.78C33.82 17.0733 32.9567 14.9733 31.23 13.48C29.5033 11.9867 26.89 11.24 23.39 11.24H9.11L14.15 5.85V33.64ZM64.7146 21.74H88.3046V30.56H64.7146V21.74ZM65.5546 41.9H92.2246V51H54.2846V2H91.3146V11.1H65.5546V41.9ZM101.247 51V2H122.457C126.844 2 130.624 2.72333 133.798 4.17C136.971 5.57 139.421 7.6 141.148 10.26C142.874 12.92 143.738 16.0933 143.738 19.78C143.738 23.42 142.874 26.57 141.148 29.23C139.421 31.89 136.971 33.9433 133.798 35.39C130.624 36.79 126.844 37.49 122.457 37.49H107.548L112.587 32.38V51H101.247ZM112.587 33.64L107.548 28.25H121.827C125.328 28.25 127.941 27.5033 129.667 26.01C131.394 24.5167 132.257 22.44 132.257 19.78C132.257 17.0733 131.394 14.9733 129.667 13.48C127.941 11.9867 125.328 11.24 121.827 11.24H107.548L112.587 5.85V33.64ZM162.263 21.74H185.853V30.56H162.263V21.74ZM163.103 41.9H189.773V51H151.833V2H188.863V11.1H163.103V41.9ZM192.356 51L214.196 2H225.396L247.306 51H235.406L217.486 7.74H221.966L203.976 51H192.356ZM203.276 40.5L206.286 31.89H231.486L234.566 40.5H203.276ZM260.079 51V11.24H244.399V2H287.099V11.24H271.419V51H260.079Z" stroke="#C3C3C3" stroke-width="4" mask="url(#path-1-outside-1_307_10)"/>
<path d="M298.81 51V2H320.02C324.407 2 328.187 2.72333 331.36 4.17C334.533 5.57 336.983 7.6 338.71 10.26C340.437 12.92 341.3 16.0933 341.3 19.78C341.3 23.42 340.437 26.57 338.71 29.23C336.983 31.8433 334.533 33.85 331.36 35.25C328.187 36.65 324.407 37.35 320.02 37.35H305.11L310.15 32.38V51H298.81ZM329.96 51L317.71 33.22H329.82L342.21 51H329.96ZM310.15 33.64L305.11 28.32H319.39C322.89 28.32 325.503 27.5733 327.23 26.08C328.957 24.54 329.82 22.44 329.82 19.78C329.82 17.0733 328.957 14.9733 327.23 13.48C325.503 11.9867 322.89 11.24 319.39 11.24H305.11L310.15 5.85V33.64Z" stroke="#C3C3C3" stroke-width="4" mask="url(#path-1-outside-1_307_10)"/>
<path d="M360.715 21.74H384.305V30.56H360.715V21.74ZM361.555 41.9H388.225V51H350.285V2H387.315V11.1H361.555V41.9Z" stroke="#C3C3C3" stroke-width="4" mask="url(#path-1-outside-1_307_10)"/>
<path d="M397.247 51V2H418.457C422.844 2 426.624 2.72333 429.797 4.17C432.971 5.57 435.421 7.6 437.147 10.26C438.874 12.92 439.737 16.0933 439.737 19.78C439.737 23.42 438.874 26.57 437.147 29.23C435.421 31.89 432.971 33.9433 429.797 35.39C426.624 36.79 422.844 37.49 418.457 37.49H403.547L408.587 32.38V51H397.247ZM408.587 33.64L403.547 28.25H417.827C421.327 28.25 423.941 27.5033 425.668 26.01C427.394 24.5167 428.258 22.44 428.258 19.78C428.258 17.0733 427.394 14.9733 425.668 13.48C423.941 11.9867 421.327 11.24 417.827 11.24H403.547L408.587 5.85V33.64Z" stroke="#C3C3C3" stroke-width="4" mask="url(#path-1-outside-1_307_10)"/>
<path d="M458.263 21.74H481.853V30.56H458.263V21.74ZM459.103 41.9H485.773V51H447.833V2H484.863V11.1H459.103V41.9Z" stroke="#C3C3C3" stroke-width="4" mask="url(#path-1-outside-1_307_10)"/>
<path d="M488.356 51L510.196 2H521.396L543.306 51H531.406L513.486 7.74H517.966L499.976 51H488.356ZM499.276 40.5L502.286 31.89H527.486L530.566 40.5H499.276Z" stroke="#C3C3C3" stroke-width="4" mask="url(#path-1-outside-1_307_10)"/>
<path d="M556.079 51V11.24H540.399V2H583.099V11.24H567.419V51H556.079Z" stroke="#C3C3C3" stroke-width="4" mask="url(#path-1-outside-1_307_10)"/>
</svg>
