<svg width="482" height="55" viewBox="0 0 482 55" fill="none" xmlns="http://www.w3.org/2000/svg">
<mask id="path-1-outside-1_307_4" maskUnits="userSpaceOnUse" x="-0.0400085" y="0.159912" width="482" height="55" fill="black">
<rect fill="white" x="-0.0400085" y="0.159912" width="482" height="55"/>
<path d="M271.91 52.8399C267.99 52.8399 264.233 52.3266 260.64 51.2999C257.047 50.2266 254.153 48.8499 251.96 47.1699L255.81 38.6299C257.91 40.1232 260.383 41.3599 263.23 42.3399C266.123 43.2732 269.04 43.7399 271.98 43.7399C274.22 43.7399 276.017 43.5299 277.37 43.1099C278.77 42.6432 279.797 42.0132 280.45 41.2199C281.103 40.4266 281.43 39.5166 281.43 38.4899C281.43 37.1832 280.917 36.1566 279.89 35.4099C278.863 34.6166 277.51 33.9866 275.83 33.5199C274.15 33.0066 272.283 32.5399 270.23 32.1199C268.223 31.6532 266.193 31.0932 264.14 30.4399C262.133 29.7866 260.29 28.9466 258.61 27.9199C256.93 26.8932 255.553 25.5399 254.48 23.8599C253.453 22.1799 252.94 20.0332 252.94 17.4199C252.94 14.6199 253.687 12.0766 255.18 9.78991C256.72 7.45658 259.007 5.61324 262.04 4.25991C265.12 2.85991 268.97 2.15991 273.59 2.15991C276.67 2.15991 279.703 2.53324 282.69 3.27991C285.677 3.97991 288.313 5.05324 290.6 6.49991L287.1 15.1099C284.813 13.8032 282.527 12.8466 280.24 12.2399C277.953 11.5866 275.713 11.2599 273.52 11.2599C271.327 11.2599 269.53 11.5166 268.13 12.0299C266.73 12.5432 265.727 13.2199 265.12 14.0599C264.513 14.8532 264.21 15.7866 264.21 16.8599C264.21 18.1199 264.723 19.1466 265.75 19.9399C266.777 20.6866 268.13 21.2932 269.81 21.7599C271.49 22.2266 273.333 22.6932 275.34 23.1599C277.393 23.6266 279.423 24.1632 281.43 24.7699C283.483 25.3766 285.35 26.1932 287.03 27.2199C288.71 28.2466 290.063 29.5999 291.09 31.2799C292.163 32.9599 292.7 35.0832 292.7 37.6499C292.7 40.4032 291.93 42.9232 290.39 45.2099C288.85 47.4966 286.54 49.3399 283.46 50.7399C280.427 52.1399 276.577 52.8399 271.91 52.8399Z"/>
<path d="M300.449 51.9999V2.99991H311.789V42.7599H336.359V51.9999H300.449Z"/>
<path d="M353.125 22.7399H376.715V31.5599H353.125V22.7399ZM353.965 42.8999H380.635V51.9999H342.695V2.99991H379.725V12.0999H353.965V42.8999Z"/>
<path d="M400.088 22.7399H423.678V31.5599H400.088V22.7399ZM400.928 42.8999H427.598V51.9999H389.658V2.99991H426.688V12.0999H400.928V42.8999Z"/>
<path d="M436.621 51.9999V2.99991H457.831C462.217 2.99991 465.997 3.72324 469.171 5.16991C472.344 6.56991 474.794 8.59991 476.521 11.2599C478.247 13.9199 479.111 17.0932 479.111 20.7799C479.111 24.4199 478.247 27.5699 476.521 30.2299C474.794 32.8899 472.344 34.9432 469.171 36.3899C465.997 37.7899 462.217 38.4899 457.831 38.4899H442.921L447.961 33.3799V51.9999H436.621ZM447.961 34.6399L442.921 29.2499H457.201C460.701 29.2499 463.314 28.5032 465.041 27.0099C466.767 25.5166 467.631 23.4399 467.631 20.7799C467.631 18.0732 466.767 15.9732 465.041 14.4799C463.314 12.9866 460.701 12.2399 457.201 12.2399H442.921L447.961 6.84991V34.6399Z"/>
<path d="M22.91 52.8399C18.99 52.8399 15.2333 52.3266 11.64 51.2999C8.04666 50.2266 5.15332 48.8499 2.95999 47.1699L6.80999 38.6299C8.90999 40.1232 11.3833 41.3599 14.23 42.3399C17.1233 43.2732 20.04 43.7399 22.98 43.7399C25.22 43.7399 27.0167 43.5299 28.37 43.1099C29.77 42.6432 30.7967 42.0132 31.45 41.2199C32.1033 40.4266 32.43 39.5166 32.43 38.4899C32.43 37.1832 31.9167 36.1566 30.89 35.4099C29.8633 34.6166 28.51 33.9866 26.83 33.5199C25.15 33.0066 23.2833 32.5399 21.23 32.1199C19.2233 31.6532 17.1933 31.0932 15.14 30.4399C13.1333 29.7866 11.29 28.9466 9.60999 27.9199C7.92999 26.8932 6.55333 25.5399 5.47999 23.8599C4.45333 22.1799 3.93999 20.0332 3.93999 17.4199C3.93999 14.6199 4.68666 12.0766 6.17999 9.78991C7.71999 7.45658 10.0067 5.61324 13.04 4.25991C16.12 2.85991 19.97 2.15991 24.59 2.15991C27.67 2.15991 30.7033 2.53324 33.69 3.27991C36.6767 3.97991 39.3133 5.05324 41.6 6.49991L38.1 15.1099C35.8133 13.8032 33.5267 12.8466 31.24 12.2399C28.9533 11.5866 26.7133 11.2599 24.52 11.2599C22.3267 11.2599 20.53 11.5166 19.13 12.0299C17.73 12.5432 16.7267 13.2199 16.12 14.0599C15.5133 14.8532 15.21 15.7866 15.21 16.8599C15.21 18.1199 15.7233 19.1466 16.75 19.9399C17.7767 20.6866 19.13 21.2932 20.81 21.7599C22.49 22.2266 24.3333 22.6932 26.34 23.1599C28.3933 23.6266 30.4233 24.1632 32.43 24.7699C34.4833 25.3766 36.35 26.1932 38.03 27.2199C39.71 28.2466 41.0633 29.5999 42.09 31.2799C43.1633 32.9599 43.7 35.0832 43.7 37.6499C43.7 40.4032 42.93 42.9232 41.39 45.2099C39.85 47.4966 37.54 49.3399 34.46 50.7399C31.4267 52.1399 27.5767 52.8399 22.91 52.8399ZM51.4487 51.9999V2.99991H62.7887V42.7599H87.3587V51.9999H51.4487ZM104.125 22.7399H127.715V31.5599H104.125V22.7399ZM104.965 42.8999H131.635V51.9999H93.6948V2.99991H130.725V12.0999H104.965V42.8999ZM151.088 22.7399H174.678V31.5599H151.088V22.7399ZM151.928 42.8999H178.598V51.9999H140.658V2.99991H177.688V12.0999H151.928V42.8999ZM187.621 51.9999V2.99991H208.831C213.217 2.99991 216.997 3.72324 220.171 5.16991C223.344 6.56991 225.794 8.59991 227.521 11.2599C229.247 13.9199 230.111 17.0932 230.111 20.7799C230.111 24.4199 229.247 27.5699 227.521 30.2299C225.794 32.8899 223.344 34.9432 220.171 36.3899C216.997 37.7899 213.217 38.4899 208.831 38.4899H193.921L198.961 33.3799V51.9999H187.621ZM198.961 34.6399L193.921 29.2499H208.201C211.701 29.2499 214.314 28.5032 216.041 27.0099C217.767 25.5166 218.631 23.4399 218.631 20.7799C218.631 18.0732 217.767 15.9732 216.041 14.4799C214.314 12.9866 211.701 12.2399 208.201 12.2399H193.921L198.961 6.84991V34.6399Z"/>
</mask>
<path d="M271.91 52.8399C267.99 52.8399 264.233 52.3266 260.64 51.2999C257.047 50.2266 254.153 48.8499 251.96 47.1699L255.81 38.6299C257.91 40.1232 260.383 41.3599 263.23 42.3399C266.123 43.2732 269.04 43.7399 271.98 43.7399C274.22 43.7399 276.017 43.5299 277.37 43.1099C278.77 42.6432 279.797 42.0132 280.45 41.2199C281.103 40.4266 281.43 39.5166 281.43 38.4899C281.43 37.1832 280.917 36.1566 279.89 35.4099C278.863 34.6166 277.51 33.9866 275.83 33.5199C274.15 33.0066 272.283 32.5399 270.23 32.1199C268.223 31.6532 266.193 31.0932 264.14 30.4399C262.133 29.7866 260.29 28.9466 258.61 27.9199C256.93 26.8932 255.553 25.5399 254.48 23.8599C253.453 22.1799 252.94 20.0332 252.94 17.4199C252.94 14.6199 253.687 12.0766 255.18 9.78991C256.72 7.45658 259.007 5.61324 262.04 4.25991C265.12 2.85991 268.97 2.15991 273.59 2.15991C276.67 2.15991 279.703 2.53324 282.69 3.27991C285.677 3.97991 288.313 5.05324 290.6 6.49991L287.1 15.1099C284.813 13.8032 282.527 12.8466 280.24 12.2399C277.953 11.5866 275.713 11.2599 273.52 11.2599C271.327 11.2599 269.53 11.5166 268.13 12.0299C266.73 12.5432 265.727 13.2199 265.12 14.0599C264.513 14.8532 264.21 15.7866 264.21 16.8599C264.21 18.1199 264.723 19.1466 265.75 19.9399C266.777 20.6866 268.13 21.2932 269.81 21.7599C271.49 22.2266 273.333 22.6932 275.34 23.1599C277.393 23.6266 279.423 24.1632 281.43 24.7699C283.483 25.3766 285.35 26.1932 287.03 27.2199C288.71 28.2466 290.063 29.5999 291.09 31.2799C292.163 32.9599 292.7 35.0832 292.7 37.6499C292.7 40.4032 291.93 42.9232 290.39 45.2099C288.85 47.4966 286.54 49.3399 283.46 50.7399C280.427 52.1399 276.577 52.8399 271.91 52.8399Z" fill="#D9D9D9"/>
<path d="M300.449 51.9999V2.99991H311.789V42.7599H336.359V51.9999H300.449Z" fill="#D9D9D9"/>
<path d="M353.125 22.7399H376.715V31.5599H353.125V22.7399ZM353.965 42.8999H380.635V51.9999H342.695V2.99991H379.725V12.0999H353.965V42.8999Z" fill="#D9D9D9"/>
<path d="M400.088 22.7399H423.678V31.5599H400.088V22.7399ZM400.928 42.8999H427.598V51.9999H389.658V2.99991H426.688V12.0999H400.928V42.8999Z" fill="#D9D9D9"/>
<path d="M436.621 51.9999V2.99991H457.831C462.217 2.99991 465.997 3.72324 469.171 5.16991C472.344 6.56991 474.794 8.59991 476.521 11.2599C478.247 13.9199 479.111 17.0932 479.111 20.7799C479.111 24.4199 478.247 27.5699 476.521 30.2299C474.794 32.8899 472.344 34.9432 469.171 36.3899C465.997 37.7899 462.217 38.4899 457.831 38.4899H442.921L447.961 33.3799V51.9999H436.621ZM447.961 34.6399L442.921 29.2499H457.201C460.701 29.2499 463.314 28.5032 465.041 27.0099C466.767 25.5166 467.631 23.4399 467.631 20.7799C467.631 18.0732 466.767 15.9732 465.041 14.4799C463.314 12.9866 460.701 12.2399 457.201 12.2399H442.921L447.961 6.84991V34.6399Z" fill="#D9D9D9"/>
<path d="M271.91 52.8399C267.99 52.8399 264.233 52.3266 260.64 51.2999C257.047 50.2266 254.153 48.8499 251.96 47.1699L255.81 38.6299C257.91 40.1232 260.383 41.3599 263.23 42.3399C266.123 43.2732 269.04 43.7399 271.98 43.7399C274.22 43.7399 276.017 43.5299 277.37 43.1099C278.77 42.6432 279.797 42.0132 280.45 41.2199C281.103 40.4266 281.43 39.5166 281.43 38.4899C281.43 37.1832 280.917 36.1566 279.89 35.4099C278.863 34.6166 277.51 33.9866 275.83 33.5199C274.15 33.0066 272.283 32.5399 270.23 32.1199C268.223 31.6532 266.193 31.0932 264.14 30.4399C262.133 29.7866 260.29 28.9466 258.61 27.9199C256.93 26.8932 255.553 25.5399 254.48 23.8599C253.453 22.1799 252.94 20.0332 252.94 17.4199C252.94 14.6199 253.687 12.0766 255.18 9.78991C256.72 7.45658 259.007 5.61324 262.04 4.25991C265.12 2.85991 268.97 2.15991 273.59 2.15991C276.67 2.15991 279.703 2.53324 282.69 3.27991C285.677 3.97991 288.313 5.05324 290.6 6.49991L287.1 15.1099C284.813 13.8032 282.527 12.8466 280.24 12.2399C277.953 11.5866 275.713 11.2599 273.52 11.2599C271.327 11.2599 269.53 11.5166 268.13 12.0299C266.73 12.5432 265.727 13.2199 265.12 14.0599C264.513 14.8532 264.21 15.7866 264.21 16.8599C264.21 18.1199 264.723 19.1466 265.75 19.9399C266.777 20.6866 268.13 21.2932 269.81 21.7599C271.49 22.2266 273.333 22.6932 275.34 23.1599C277.393 23.6266 279.423 24.1632 281.43 24.7699C283.483 25.3766 285.35 26.1932 287.03 27.2199C288.71 28.2466 290.063 29.5999 291.09 31.2799C292.163 32.9599 292.7 35.0832 292.7 37.6499C292.7 40.4032 291.93 42.9232 290.39 45.2099C288.85 47.4966 286.54 49.3399 283.46 50.7399C280.427 52.1399 276.577 52.8399 271.91 52.8399Z" stroke="#C3C3C3" stroke-width="4" mask="url(#path-1-outside-1_307_4)"/>
<path d="M300.449 51.9999V2.99991H311.789V42.7599H336.359V51.9999H300.449Z" stroke="#C3C3C3" stroke-width="4" mask="url(#path-1-outside-1_307_4)"/>
<path d="M353.125 22.7399H376.715V31.5599H353.125V22.7399ZM353.965 42.8999H380.635V51.9999H342.695V2.99991H379.725V12.0999H353.965V42.8999Z" stroke="#C3C3C3" stroke-width="4" mask="url(#path-1-outside-1_307_4)"/>
<path d="M400.088 22.7399H423.678V31.5599H400.088V22.7399ZM400.928 42.8999H427.598V51.9999H389.658V2.99991H426.688V12.0999H400.928V42.8999Z" stroke="#C3C3C3" stroke-width="4" mask="url(#path-1-outside-1_307_4)"/>
<path d="M436.621 51.9999V2.99991H457.831C462.217 2.99991 465.997 3.72324 469.171 5.16991C472.344 6.56991 474.794 8.59991 476.521 11.2599C478.247 13.9199 479.111 17.0932 479.111 20.7799C479.111 24.4199 478.247 27.5699 476.521 30.2299C474.794 32.8899 472.344 34.9432 469.171 36.3899C465.997 37.7899 462.217 38.4899 457.831 38.4899H442.921L447.961 33.3799V51.9999H436.621ZM447.961 34.6399L442.921 29.2499H457.201C460.701 29.2499 463.314 28.5032 465.041 27.0099C466.767 25.5166 467.631 23.4399 467.631 20.7799C467.631 18.0732 466.767 15.9732 465.041 14.4799C463.314 12.9866 460.701 12.2399 457.201 12.2399H442.921L447.961 6.84991V34.6399Z" stroke="#C3C3C3" stroke-width="4" mask="url(#path-1-outside-1_307_4)"/>
<path d="M22.91 52.8399C18.99 52.8399 15.2333 52.3266 11.64 51.2999C8.04666 50.2266 5.15332 48.8499 2.95999 47.1699L6.80999 38.6299C8.90999 40.1232 11.3833 41.3599 14.23 42.3399C17.1233 43.2732 20.04 43.7399 22.98 43.7399C25.22 43.7399 27.0167 43.5299 28.37 43.1099C29.77 42.6432 30.7967 42.0132 31.45 41.2199C32.1033 40.4266 32.43 39.5166 32.43 38.4899C32.43 37.1832 31.9167 36.1566 30.89 35.4099C29.8633 34.6166 28.51 33.9866 26.83 33.5199C25.15 33.0066 23.2833 32.5399 21.23 32.1199C19.2233 31.6532 17.1933 31.0932 15.14 30.4399C13.1333 29.7866 11.29 28.9466 9.60999 27.9199C7.92999 26.8932 6.55333 25.5399 5.47999 23.8599C4.45333 22.1799 3.93999 20.0332 3.93999 17.4199C3.93999 14.6199 4.68666 12.0766 6.17999 9.78991C7.71999 7.45658 10.0067 5.61324 13.04 4.25991C16.12 2.85991 19.97 2.15991 24.59 2.15991C27.67 2.15991 30.7033 2.53324 33.69 3.27991C36.6767 3.97991 39.3133 5.05324 41.6 6.49991L38.1 15.1099C35.8133 13.8032 33.5267 12.8466 31.24 12.2399C28.9533 11.5866 26.7133 11.2599 24.52 11.2599C22.3267 11.2599 20.53 11.5166 19.13 12.0299C17.73 12.5432 16.7267 13.2199 16.12 14.0599C15.5133 14.8532 15.21 15.7866 15.21 16.8599C15.21 18.1199 15.7233 19.1466 16.75 19.9399C17.7767 20.6866 19.13 21.2932 20.81 21.7599C22.49 22.2266 24.3333 22.6932 26.34 23.1599C28.3933 23.6266 30.4233 24.1632 32.43 24.7699C34.4833 25.3766 36.35 26.1932 38.03 27.2199C39.71 28.2466 41.0633 29.5999 42.09 31.2799C43.1633 32.9599 43.7 35.0832 43.7 37.6499C43.7 40.4032 42.93 42.9232 41.39 45.2099C39.85 47.4966 37.54 49.3399 34.46 50.7399C31.4267 52.1399 27.5767 52.8399 22.91 52.8399ZM51.4487 51.9999V2.99991H62.7887V42.7599H87.3587V51.9999H51.4487ZM104.125 22.7399H127.715V31.5599H104.125V22.7399ZM104.965 42.8999H131.635V51.9999H93.6948V2.99991H130.725V12.0999H104.965V42.8999ZM151.088 22.7399H174.678V31.5599H151.088V22.7399ZM151.928 42.8999H178.598V51.9999H140.658V2.99991H177.688V12.0999H151.928V42.8999ZM187.621 51.9999V2.99991H208.831C213.217 2.99991 216.997 3.72324 220.171 5.16991C223.344 6.56991 225.794 8.59991 227.521 11.2599C229.247 13.9199 230.111 17.0932 230.111 20.7799C230.111 24.4199 229.247 27.5699 227.521 30.2299C225.794 32.8899 223.344 34.9432 220.171 36.3899C216.997 37.7899 213.217 38.4899 208.831 38.4899H193.921L198.961 33.3799V51.9999H187.621ZM198.961 34.6399L193.921 29.2499H208.201C211.701 29.2499 214.314 28.5032 216.041 27.0099C217.767 25.5166 218.631 23.4399 218.631 20.7799C218.631 18.0732 217.767 15.9732 216.041 14.4799C214.314 12.9866 211.701 12.2399 208.201 12.2399H193.921L198.961 6.84991V34.6399Z" stroke="#C3C3C3" stroke-width="4" mask="url(#path-1-outside-1_307_4)"/>
</svg>
